%TF.GenerationSoftware,KiCad,Pcbnew,8.0.4*%
%TF.CreationDate,2024-10-05T17:03:56-04:00*%
%TF.ProjectId,mzizzi-split62,6d7a697a-7a69-42d7-9370-6c697436322e,v1.0.0*%
%TF.SameCoordinates,Original*%
%TF.FileFunction,Copper,L2,Bot*%
%TF.FilePolarity,Positive*%
%FSLAX46Y46*%
G04 Gerber Fmt 4.6, Leading zero omitted, Abs format (unit mm)*
G04 Created by KiCad (PCBNEW 8.0.4) date 2024-10-05 17:03:56*
%MOMM*%
%LPD*%
G01*
G04 APERTURE LIST*
G04 Aperture macros list*
%AMHorizOval*
0 Thick line with rounded ends*
0 $1 width*
0 $2 $3 position (X,Y) of the first rounded end (center of the circle)*
0 $4 $5 position (X,Y) of the second rounded end (center of the circle)*
0 Add line between two ends*
20,1,$1,$2,$3,$4,$5,0*
0 Add two circle primitives to create the rounded ends*
1,1,$1,$2,$3*
1,1,$1,$4,$5*%
%AMRotRect*
0 Rectangle, with rotation*
0 The origin of the aperture is its center*
0 $1 length*
0 $2 width*
0 $3 Rotation angle, in degrees counterclockwise*
0 Add horizontal line*
21,1,$1,$2,0,0,$3*%
G04 Aperture macros list end*
%TA.AperFunction,ComponentPad*%
%ADD10R,1.752600X1.752600*%
%TD*%
%TA.AperFunction,ComponentPad*%
%ADD11C,1.752600*%
%TD*%
%TA.AperFunction,SMDPad,CuDef*%
%ADD12R,2.600000X2.600000*%
%TD*%
%TA.AperFunction,ComponentPad*%
%ADD13HorizOval,1.600000X-0.299472X-0.017792X0.299472X0.017792X0*%
%TD*%
%TA.AperFunction,ComponentPad*%
%ADD14R,1.778000X1.778000*%
%TD*%
%TA.AperFunction,SMDPad,CuDef*%
%ADD15R,0.900000X1.200000*%
%TD*%
%TA.AperFunction,ComponentPad*%
%ADD16C,1.905000*%
%TD*%
%TA.AperFunction,ComponentPad*%
%ADD17C,0.700000*%
%TD*%
%TA.AperFunction,ComponentPad*%
%ADD18C,4.400000*%
%TD*%
%TA.AperFunction,SMDPad,CuDef*%
%ADD19RotRect,2.600000X2.600000X345.000000*%
%TD*%
%TA.AperFunction,ComponentPad*%
%ADD20RotRect,1.778000X1.778000X343.000000*%
%TD*%
%TA.AperFunction,SMDPad,CuDef*%
%ADD21RotRect,0.900000X1.200000X343.000000*%
%TD*%
%TA.AperFunction,SMDPad,CuDef*%
%ADD22RotRect,2.600000X2.600000X350.000000*%
%TD*%
%TA.AperFunction,ComponentPad*%
%ADD23RotRect,1.778000X1.778000X350.000000*%
%TD*%
%TA.AperFunction,SMDPad,CuDef*%
%ADD24RotRect,0.900000X1.200000X350.000000*%
%TD*%
%TA.AperFunction,SMDPad,CuDef*%
%ADD25RotRect,2.600000X2.600000X343.000000*%
%TD*%
%TA.AperFunction,ComponentPad*%
%ADD26RotRect,1.778000X1.778000X345.000000*%
%TD*%
%TA.AperFunction,SMDPad,CuDef*%
%ADD27RotRect,0.900000X1.200000X345.000000*%
%TD*%
%TA.AperFunction,ViaPad*%
%ADD28C,0.800000*%
%TD*%
%TA.AperFunction,Conductor*%
%ADD29C,0.250000*%
%TD*%
G04 APERTURE END LIST*
D10*
%TO.P,MCU2,1*%
%TO.N,RAW*%
X271620000Y-74030000D03*
D11*
%TO.P,MCU2,2*%
%TO.N,GND*%
X271620000Y-76570000D03*
%TO.P,MCU2,3*%
%TO.N,RUN*%
X271620000Y-79110000D03*
%TO.P,MCU2,4*%
%TO.N,VCC*%
X271620000Y-81650000D03*
%TO.P,MCU2,5*%
%TO.N,D29*%
X271620000Y-84190000D03*
%TO.P,MCU2,6*%
%TO.N,D28*%
X271620000Y-86730000D03*
%TO.P,MCU2,7*%
%TO.N,D27*%
X271620000Y-89270000D03*
%TO.P,MCU2,8*%
%TO.N,D26*%
X271620000Y-91810000D03*
%TO.P,MCU2,9*%
%TO.N,D22*%
X271620000Y-94350000D03*
%TO.P,MCU2,10*%
%TO.N,D20*%
X271620000Y-96890000D03*
%TO.P,MCU2,11*%
%TO.N,D23*%
X271620000Y-99430000D03*
%TO.P,MCU2,12*%
%TO.N,D21*%
X271620000Y-101970000D03*
%TO.P,MCU2,13*%
%TO.N,D0*%
X256380000Y-74030000D03*
%TO.P,MCU2,14*%
%TO.N,D1*%
X256380000Y-76570000D03*
%TO.P,MCU2,15*%
%TO.N,GND*%
X256380000Y-79110000D03*
%TO.P,MCU2,16*%
X256380000Y-81650000D03*
%TO.P,MCU2,17*%
%TO.N,D2*%
X256380000Y-84190000D03*
%TO.P,MCU2,18*%
%TO.N,D3*%
X256380000Y-86730000D03*
%TO.P,MCU2,19*%
%TO.N,D4*%
X256380000Y-89270000D03*
%TO.P,MCU2,20*%
%TO.N,D5*%
X256380000Y-91810000D03*
%TO.P,MCU2,21*%
%TO.N,D6*%
X256380000Y-94350000D03*
%TO.P,MCU2,22*%
%TO.N,D7*%
X256380000Y-96890000D03*
%TO.P,MCU2,23*%
%TO.N,D8*%
X256380000Y-99430000D03*
%TO.P,MCU2,24*%
%TO.N,D9*%
X256380000Y-101970000D03*
%TD*%
D12*
%TO.P,S11,1*%
%TO.N,D27*%
X182725000Y-142050000D03*
%TO.P,S11,2*%
%TO.N,ring_mod*%
X194275000Y-144250000D03*
%TD*%
D13*
%TO.P,TRRS1,1*%
%TO.N,VCC*%
X263583485Y-112374210D03*
X263719890Y-114670162D03*
%TO.P,TRRS1,2*%
%TO.N,GND*%
X264545144Y-110013022D03*
X264954358Y-116900877D03*
%TO.P,TRRS1,3*%
%TO.N,D1*%
X268538104Y-109775796D03*
X268947318Y-116663651D03*
%TO.P,TRRS1,4*%
%TO.N,D0*%
X271532823Y-109597877D03*
X271942037Y-116485732D03*
%TD*%
D14*
%TO.P,D23,1*%
%TO.N,D3*%
X218190000Y-102000000D03*
D15*
X220350000Y-102000000D03*
%TO.P,D23,2*%
%TO.N,index_top*%
X223650000Y-102000000D03*
D16*
X225810000Y-102000000D03*
%TD*%
D12*
%TO.P,S3,1*%
%TO.N,D29*%
X146725000Y-110050000D03*
%TO.P,S3,2*%
%TO.N,outer_home*%
X158275000Y-112250000D03*
%TD*%
%TO.P,S1,1*%
%TO.N,D29*%
X146725000Y-144050000D03*
%TO.P,S1,2*%
%TO.N,outer_mod*%
X158275000Y-146250000D03*
%TD*%
D14*
%TO.P,D9,1*%
%TO.N,D3*%
X164190000Y-104000000D03*
D15*
X166350000Y-104000000D03*
%TO.P,D9,2*%
%TO.N,pinky_top*%
X169650000Y-104000000D03*
D16*
X171810000Y-104000000D03*
%TD*%
D14*
%TO.P,D20,1*%
%TO.N,D2*%
X200190000Y-83000000D03*
D15*
X202350000Y-83000000D03*
%TO.P,D20,2*%
%TO.N,middle_num*%
X205650000Y-83000000D03*
D16*
X207810000Y-83000000D03*
%TD*%
D14*
%TO.P,D19,1*%
%TO.N,D3*%
X200190000Y-100000000D03*
D15*
X202350000Y-100000000D03*
%TO.P,D19,2*%
%TO.N,middle_top*%
X205650000Y-100000000D03*
D16*
X207810000Y-100000000D03*
%TD*%
D12*
%TO.P,S9,1*%
%TO.N,D28*%
X164725000Y-93050000D03*
%TO.P,S9,2*%
%TO.N,pinky_top*%
X176275000Y-95250000D03*
%TD*%
%TO.P,S8,1*%
%TO.N,D28*%
X164725000Y-110050000D03*
%TO.P,S8,2*%
%TO.N,pinky_home*%
X176275000Y-112250000D03*
%TD*%
%TO.P,S6,1*%
%TO.N,D28*%
X164725000Y-144050000D03*
%TO.P,S6,2*%
%TO.N,pinky_mod*%
X176275000Y-146250000D03*
%TD*%
%TO.P,S27,1*%
%TO.N,D20*%
X236725000Y-91050000D03*
%TO.P,S27,2*%
%TO.N,inner_top*%
X248275000Y-93250000D03*
%TD*%
D17*
%TO.P,_1,1*%
%TO.N,N/C*%
X248204516Y-140866326D03*
X248973294Y-139864434D03*
X248369352Y-142118376D03*
X250225344Y-139699598D03*
D18*
X249798294Y-141293376D03*
D17*
X249371244Y-142887154D03*
X251227236Y-140468376D03*
X250623294Y-142722318D03*
X251392072Y-141720426D03*
%TD*%
D12*
%TO.P,S16,1*%
%TO.N,D26*%
X200725000Y-140050000D03*
%TO.P,S16,2*%
%TO.N,middle_mod*%
X212275000Y-142250000D03*
%TD*%
D14*
%TO.P,D11,1*%
%TO.N,D6*%
X182190000Y-153000000D03*
D15*
X184350000Y-153000000D03*
%TO.P,D11,2*%
%TO.N,ring_mod*%
X187650000Y-153000000D03*
D16*
X189810000Y-153000000D03*
%TD*%
D10*
%TO.P,MCU1,1*%
%TO.N,RAW*%
X253380000Y-75280000D03*
D11*
%TO.P,MCU1,2*%
%TO.N,GND*%
X253380000Y-77820000D03*
%TO.P,MCU1,3*%
%TO.N,RUN*%
X253380000Y-80360000D03*
%TO.P,MCU1,4*%
%TO.N,VCC*%
X253380000Y-82900000D03*
%TO.P,MCU1,5*%
%TO.N,D29*%
X253380000Y-85440000D03*
%TO.P,MCU1,6*%
%TO.N,D28*%
X253380000Y-87980000D03*
%TO.P,MCU1,7*%
%TO.N,D27*%
X253380000Y-90520000D03*
%TO.P,MCU1,8*%
%TO.N,D26*%
X253380000Y-93060000D03*
%TO.P,MCU1,9*%
%TO.N,D22*%
X253380000Y-95600000D03*
%TO.P,MCU1,10*%
%TO.N,D20*%
X253380000Y-98140000D03*
%TO.P,MCU1,11*%
%TO.N,D23*%
X253380000Y-100680000D03*
%TO.P,MCU1,12*%
%TO.N,D21*%
X253380000Y-103220000D03*
%TO.P,MCU1,13*%
%TO.N,D0*%
X268620000Y-75280000D03*
%TO.P,MCU1,14*%
%TO.N,D1*%
X268620000Y-77820000D03*
%TO.P,MCU1,15*%
%TO.N,GND*%
X268620000Y-80360000D03*
%TO.P,MCU1,16*%
X268620000Y-82900000D03*
%TO.P,MCU1,17*%
%TO.N,D2*%
X268620000Y-85440000D03*
%TO.P,MCU1,18*%
%TO.N,D3*%
X268620000Y-87980000D03*
%TO.P,MCU1,19*%
%TO.N,D4*%
X268620000Y-90520000D03*
%TO.P,MCU1,20*%
%TO.N,D5*%
X268620000Y-93060000D03*
%TO.P,MCU1,21*%
%TO.N,D6*%
X268620000Y-95600000D03*
%TO.P,MCU1,22*%
%TO.N,D7*%
X268620000Y-98140000D03*
%TO.P,MCU1,23*%
%TO.N,D8*%
X268620000Y-100680000D03*
%TO.P,MCU1,24*%
%TO.N,D9*%
X268620000Y-103220000D03*
%TD*%
D14*
%TO.P,D7,1*%
%TO.N,D5*%
X164190000Y-138000000D03*
D15*
X166350000Y-138000000D03*
%TO.P,D7,2*%
%TO.N,pinky_bottom*%
X169650000Y-138000000D03*
D16*
X171810000Y-138000000D03*
%TD*%
D14*
%TO.P,D2,1*%
%TO.N,D5*%
X146190000Y-138000000D03*
D15*
X148350000Y-138000000D03*
%TO.P,D2,2*%
%TO.N,outer_bottom*%
X151650000Y-138000000D03*
D16*
X153810000Y-138000000D03*
%TD*%
D14*
%TO.P,D8,1*%
%TO.N,D4*%
X164190000Y-121000000D03*
D15*
X166350000Y-121000000D03*
%TO.P,D8,2*%
%TO.N,pinky_home*%
X169650000Y-121000000D03*
D16*
X171810000Y-121000000D03*
%TD*%
D12*
%TO.P,S28,1*%
%TO.N,D20*%
X236725000Y-74050000D03*
%TO.P,S28,2*%
%TO.N,inner_num*%
X248275000Y-76250000D03*
%TD*%
%TO.P,S2,1*%
%TO.N,D29*%
X146725000Y-127050000D03*
%TO.P,S2,2*%
%TO.N,outer_bottom*%
X158275000Y-129250000D03*
%TD*%
D14*
%TO.P,D12,1*%
%TO.N,D5*%
X182190000Y-136000000D03*
D15*
X184350000Y-136000000D03*
%TO.P,D12,2*%
%TO.N,ring_bottom*%
X187650000Y-136000000D03*
D16*
X189810000Y-136000000D03*
%TD*%
D12*
%TO.P,S10,1*%
%TO.N,D28*%
X164725000Y-76050000D03*
%TO.P,S10,2*%
%TO.N,pinky_num*%
X176275000Y-78250000D03*
%TD*%
%TO.P,S19,1*%
%TO.N,D26*%
X200725000Y-89050000D03*
%TO.P,S19,2*%
%TO.N,middle_top*%
X212275000Y-91250000D03*
%TD*%
D17*
%TO.P,_2,1*%
%TO.N,N/C*%
X229350000Y-88500000D03*
X229833274Y-87333274D03*
X229833274Y-89666726D03*
X231000000Y-86850000D03*
D18*
X231000000Y-88500000D03*
D17*
X231000000Y-90150000D03*
X232166726Y-87333274D03*
X232166726Y-89666726D03*
X232650000Y-88500000D03*
%TD*%
D12*
%TO.P,S20,1*%
%TO.N,D26*%
X200725000Y-72050000D03*
%TO.P,S20,2*%
%TO.N,middle_num*%
X212275000Y-74250000D03*
%TD*%
%TO.P,S14,1*%
%TO.N,D27*%
X182725000Y-91050000D03*
%TO.P,S14,2*%
%TO.N,ring_top*%
X194275000Y-93250000D03*
%TD*%
D14*
%TO.P,D13,1*%
%TO.N,D4*%
X182190000Y-119000000D03*
D15*
X184350000Y-119000000D03*
%TO.P,D13,2*%
%TO.N,ring_home*%
X187650000Y-119000000D03*
D16*
X189810000Y-119000000D03*
%TD*%
D14*
%TO.P,D18,1*%
%TO.N,D4*%
X200190000Y-117000000D03*
D15*
X202350000Y-117000000D03*
%TO.P,D18,2*%
%TO.N,middle_home*%
X205650000Y-117000000D03*
D16*
X207810000Y-117000000D03*
%TD*%
D14*
%TO.P,D21,1*%
%TO.N,D5*%
X218190000Y-136000000D03*
D15*
X220350000Y-136000000D03*
%TO.P,D21,2*%
%TO.N,index_bottom*%
X223650000Y-136000000D03*
D16*
X225810000Y-136000000D03*
%TD*%
D12*
%TO.P,S23,1*%
%TO.N,D22*%
X218725000Y-91050000D03*
%TO.P,S23,2*%
%TO.N,index_top*%
X230275000Y-93250000D03*
%TD*%
D17*
%TO.P,_3,1*%
%TO.N,N/C*%
X157350000Y-90500000D03*
X157833274Y-89333274D03*
X157833274Y-91666726D03*
X159000000Y-88850000D03*
D18*
X159000000Y-90500000D03*
D17*
X159000000Y-92150000D03*
X160166726Y-89333274D03*
X160166726Y-91666726D03*
X160650000Y-90500000D03*
%TD*%
D14*
%TO.P,D26,1*%
%TO.N,D4*%
X236190000Y-119000000D03*
D15*
X238350000Y-119000000D03*
%TO.P,D26,2*%
%TO.N,inner_home*%
X241650000Y-119000000D03*
D16*
X243810000Y-119000000D03*
%TD*%
D12*
%TO.P,S22,1*%
%TO.N,D22*%
X218725000Y-108050000D03*
%TO.P,S22,2*%
%TO.N,index_home*%
X230275000Y-110250000D03*
%TD*%
D14*
%TO.P,D28,1*%
%TO.N,D2*%
X236190000Y-85000000D03*
D15*
X238350000Y-85000000D03*
%TO.P,D28,2*%
%TO.N,inner_num*%
X241650000Y-85000000D03*
D16*
X243810000Y-85000000D03*
%TD*%
D14*
%TO.P,D25,1*%
%TO.N,D5*%
X236190000Y-136000000D03*
D15*
X238350000Y-136000000D03*
%TO.P,D25,2*%
%TO.N,inner_bottom*%
X241650000Y-136000000D03*
D16*
X243810000Y-136000000D03*
%TD*%
D12*
%TO.P,S13,1*%
%TO.N,D27*%
X182725000Y-108050000D03*
%TO.P,S13,2*%
%TO.N,ring_home*%
X194275000Y-110250000D03*
%TD*%
D14*
%TO.P,D6,1*%
%TO.N,D6*%
X164190000Y-155000000D03*
D15*
X166350000Y-155000000D03*
%TO.P,D6,2*%
%TO.N,pinky_mod*%
X169650000Y-155000000D03*
D16*
X171810000Y-155000000D03*
%TD*%
D12*
%TO.P,S7,1*%
%TO.N,D28*%
X164725000Y-127050000D03*
%TO.P,S7,2*%
%TO.N,pinky_bottom*%
X176275000Y-129250000D03*
%TD*%
%TO.P,S25,1*%
%TO.N,D20*%
X236725000Y-125050000D03*
%TO.P,S25,2*%
%TO.N,inner_bottom*%
X248275000Y-127250000D03*
%TD*%
%TO.P,S18,1*%
%TO.N,D26*%
X200725000Y-106050000D03*
%TO.P,S18,2*%
%TO.N,middle_home*%
X212275000Y-108250000D03*
%TD*%
D19*
%TO.P,S30,1*%
%TO.N,D8*%
X245327851Y-145323669D03*
%TO.P,S30,2*%
%TO.N,thumbMiddle_thumb*%
X255914893Y-150438066D03*
%TD*%
D14*
%TO.P,D3,1*%
%TO.N,D4*%
X146190000Y-121000000D03*
D15*
X148350000Y-121000000D03*
%TO.P,D3,2*%
%TO.N,outer_home*%
X151650000Y-121000000D03*
D16*
X153810000Y-121000000D03*
%TD*%
D14*
%TO.P,D27,1*%
%TO.N,D3*%
X236190000Y-102000000D03*
D15*
X238350000Y-102000000D03*
%TO.P,D27,2*%
%TO.N,inner_top*%
X241650000Y-102000000D03*
D16*
X243810000Y-102000000D03*
%TD*%
D12*
%TO.P,S24,1*%
%TO.N,D22*%
X218725000Y-74050000D03*
%TO.P,S24,2*%
%TO.N,index_num*%
X230275000Y-76250000D03*
%TD*%
D20*
%TO.P,D31,1*%
%TO.N,D23*%
X259442282Y-161390555D03*
D21*
X261507900Y-162022078D03*
%TO.P,D31,2*%
%TO.N,thumbOuter_thumb*%
X264663706Y-162986904D03*
D16*
X266729324Y-163618427D03*
%TD*%
D12*
%TO.P,S12,1*%
%TO.N,D27*%
X182725000Y-125050000D03*
%TO.P,S12,2*%
%TO.N,ring_bottom*%
X194275000Y-127250000D03*
%TD*%
%TO.P,S5,1*%
%TO.N,D29*%
X146725000Y-76050000D03*
%TO.P,S5,2*%
%TO.N,outer_num*%
X158275000Y-78250000D03*
%TD*%
D14*
%TO.P,D10,1*%
%TO.N,D2*%
X164190000Y-87000000D03*
D15*
X166350000Y-87000000D03*
%TO.P,D10,2*%
%TO.N,pinky_num*%
X169650000Y-87000000D03*
D16*
X171810000Y-87000000D03*
%TD*%
D22*
%TO.P,S29,1*%
%TO.N,D7*%
X225807961Y-143071696D03*
%TO.P,S29,2*%
%TO.N,thumbInner_thumb*%
X236800465Y-147243910D03*
%TD*%
D23*
%TO.P,D29,1*%
%TO.N,D23*%
X223379640Y-153762439D03*
D24*
X225506826Y-154137520D03*
%TO.P,D29,2*%
%TO.N,thumbInner_thumb*%
X228756692Y-154710558D03*
D16*
X230883878Y-155085639D03*
%TD*%
D14*
%TO.P,D17,1*%
%TO.N,D5*%
X200190000Y-134000000D03*
D15*
X202350000Y-134000000D03*
%TO.P,D17,2*%
%TO.N,middle_bottom*%
X205650000Y-134000000D03*
D16*
X207810000Y-134000000D03*
%TD*%
D12*
%TO.P,S15,1*%
%TO.N,D27*%
X182725000Y-74050000D03*
%TO.P,S15,2*%
%TO.N,ring_num*%
X194275000Y-76250000D03*
%TD*%
D14*
%TO.P,D15,1*%
%TO.N,D2*%
X182190000Y-85000000D03*
D15*
X184350000Y-85000000D03*
%TO.P,D15,2*%
%TO.N,ring_num*%
X187650000Y-85000000D03*
D16*
X189810000Y-85000000D03*
%TD*%
D14*
%TO.P,D5,1*%
%TO.N,D2*%
X146190000Y-87000000D03*
D15*
X148350000Y-87000000D03*
%TO.P,D5,2*%
%TO.N,outer_num*%
X151650000Y-87000000D03*
D16*
X153810000Y-87000000D03*
%TD*%
D12*
%TO.P,S4,1*%
%TO.N,D29*%
X146725000Y-93050000D03*
%TO.P,S4,2*%
%TO.N,outer_top*%
X158275000Y-95250000D03*
%TD*%
D17*
%TO.P,_4,1*%
%TO.N,N/C*%
X157350000Y-141500000D03*
X157833274Y-140333274D03*
X157833274Y-142666726D03*
X159000000Y-139850000D03*
D18*
X159000000Y-141500000D03*
D17*
X159000000Y-143150000D03*
X160166726Y-140333274D03*
X160166726Y-142666726D03*
X160650000Y-141500000D03*
%TD*%
D12*
%TO.P,S26,1*%
%TO.N,D20*%
X236725000Y-108050000D03*
%TO.P,S26,2*%
%TO.N,inner_home*%
X248275000Y-110250000D03*
%TD*%
D14*
%TO.P,D24,1*%
%TO.N,D2*%
X218190000Y-85000000D03*
D15*
X220350000Y-85000000D03*
%TO.P,D24,2*%
%TO.N,index_num*%
X223650000Y-85000000D03*
D16*
X225810000Y-85000000D03*
%TD*%
D25*
%TO.P,S31,1*%
%TO.N,D9*%
X263155375Y-151075437D03*
%TO.P,S31,2*%
%TO.N,thumbOuter_thumb*%
X273557477Y-156556201D03*
%TD*%
D12*
%TO.P,S17,1*%
%TO.N,D26*%
X200725000Y-123050000D03*
%TO.P,S17,2*%
%TO.N,middle_bottom*%
X212275000Y-125250000D03*
%TD*%
D14*
%TO.P,D1,1*%
%TO.N,D6*%
X146190000Y-155000000D03*
D15*
X148350000Y-155000000D03*
%TO.P,D1,2*%
%TO.N,outer_mod*%
X151650000Y-155000000D03*
D16*
X153810000Y-155000000D03*
%TD*%
D14*
%TO.P,D22,1*%
%TO.N,D4*%
X218190000Y-119000000D03*
D15*
X220350000Y-119000000D03*
%TO.P,D22,2*%
%TO.N,index_home*%
X223650000Y-119000000D03*
D16*
X225810000Y-119000000D03*
%TD*%
D14*
%TO.P,D4,1*%
%TO.N,D3*%
X146190000Y-104000000D03*
D15*
X148350000Y-104000000D03*
%TO.P,D4,2*%
%TO.N,outer_top*%
X151650000Y-104000000D03*
D16*
X153810000Y-104000000D03*
%TD*%
D26*
%TO.P,D30,1*%
%TO.N,D23*%
X241977012Y-155762088D03*
D27*
X244063411Y-156321140D03*
%TO.P,D30,2*%
%TO.N,thumbMiddle_thumb*%
X247250967Y-157175240D03*
D16*
X249337366Y-157734292D03*
%TD*%
D14*
%TO.P,D16,1*%
%TO.N,D6*%
X200190000Y-151000000D03*
D15*
X202350000Y-151000000D03*
%TO.P,D16,2*%
%TO.N,middle_mod*%
X205650000Y-151000000D03*
D16*
X207810000Y-151000000D03*
%TD*%
D12*
%TO.P,S21,1*%
%TO.N,D22*%
X218725000Y-125050000D03*
%TO.P,S21,2*%
%TO.N,index_bottom*%
X230275000Y-127250000D03*
%TD*%
D14*
%TO.P,D14,1*%
%TO.N,D3*%
X182190000Y-102000000D03*
D15*
X184350000Y-102000000D03*
%TO.P,D14,2*%
%TO.N,ring_top*%
X187650000Y-102000000D03*
D16*
X189810000Y-102000000D03*
%TD*%
D28*
%TO.N,D22*%
X218725000Y-91050000D03*
%TO.N,D9*%
X263155375Y-151075437D03*
%TO.N,D8*%
X245327851Y-145323669D03*
%TO.N,D7*%
X225807961Y-143071696D03*
%TO.N,D29*%
X146725000Y-144050000D03*
X146725000Y-93050000D03*
X146725000Y-76050000D03*
X146725000Y-127050000D03*
X146725000Y-110050000D03*
%TO.N,D28*%
X164725000Y-76050000D03*
X164725000Y-127050000D03*
X164725000Y-110050000D03*
X164725000Y-93050000D03*
X164725000Y-144050000D03*
%TO.N,D27*%
X182725000Y-74050000D03*
X182725000Y-108050000D03*
X182725000Y-91050000D03*
X182725000Y-125050000D03*
X182725000Y-142050000D03*
%TO.N,D26*%
X200725000Y-123050000D03*
X200725000Y-89050000D03*
X200725000Y-140050000D03*
X200725000Y-106050000D03*
X200725000Y-72050000D03*
%TO.N,D22*%
X218725000Y-74050000D03*
X218725000Y-108050000D03*
X218725000Y-125050000D03*
%TO.N,D20*%
X236725000Y-108050000D03*
X236725000Y-91050000D03*
X236725000Y-125050000D03*
X236725000Y-74050000D03*
%TD*%
D29*
%TO.N,D9*%
X267557501Y-103220000D02*
X268620000Y-103220000D01*
X265330000Y-103670000D02*
X267107501Y-103670000D01*
X261000000Y-148920062D02*
X261000000Y-108000000D01*
X261000000Y-108000000D02*
X265330000Y-103670000D01*
X263155375Y-151075437D02*
X261000000Y-148920062D01*
X267107501Y-103670000D02*
X267557501Y-103220000D01*
%TO.N,D23*%
X258062085Y-160010358D02*
X258062085Y-105362085D01*
X259442282Y-161390555D02*
X258062085Y-160010358D01*
X258062085Y-105362085D02*
X253380000Y-100680000D01*
%TO.N,middle_num*%
X211500000Y-75025000D02*
X211500000Y-79310000D01*
X211500000Y-79310000D02*
X207810000Y-83000000D01*
X212275000Y-74250000D02*
X211500000Y-75025000D01*
%TO.N,thumbMiddle_thumb*%
X249964526Y-157734292D02*
X249337366Y-157734292D01*
X255914893Y-151783925D02*
X249964526Y-157734292D01*
X255914893Y-150438066D02*
X255914893Y-151783925D01*
%TO.N,thumbOuter_thumb*%
X273557477Y-157915600D02*
X267854650Y-163618427D01*
X267854650Y-163618427D02*
X266729324Y-163618427D01*
X273557477Y-156556201D02*
X273557477Y-157915600D01*
%TO.N,D8*%
X252570000Y-99430000D02*
X256380000Y-99430000D01*
X252178700Y-131594092D02*
X252178700Y-99821300D01*
X245327851Y-138444941D02*
X252178700Y-131594092D01*
X252178700Y-99821300D02*
X252570000Y-99430000D01*
X245327851Y-145323669D02*
X245327851Y-138444941D01*
%TO.N,D23*%
X241977012Y-157477012D02*
X241977012Y-155762088D01*
X242000000Y-157500000D02*
X241977012Y-157477012D01*
X244500000Y-160500000D02*
X242000000Y-158000000D01*
X242000000Y-158000000D02*
X242000000Y-157500000D01*
X258551727Y-160500000D02*
X244500000Y-160500000D01*
X259442282Y-161390555D02*
X258551727Y-160500000D01*
X227117201Y-157500000D02*
X223379640Y-153762439D01*
X240239100Y-157500000D02*
X227117201Y-157500000D01*
X241977012Y-155762088D02*
X240239100Y-157500000D01*
%TO.N,thumbInner_thumb*%
X236800465Y-149169052D02*
X236800465Y-147243910D01*
X230883878Y-155085639D02*
X236800465Y-149169052D01*
%TO.N,D6*%
X251500000Y-95761300D02*
X252911300Y-94350000D01*
X223050000Y-138450000D02*
X244686396Y-138450000D01*
X252911300Y-94350000D02*
X256380000Y-94350000D01*
X208500000Y-153000000D02*
X223050000Y-138450000D01*
X251500000Y-131636396D02*
X251500000Y-95761300D01*
X202190000Y-153000000D02*
X208500000Y-153000000D01*
X200190000Y-151000000D02*
X202190000Y-153000000D01*
X244686396Y-138450000D02*
X251500000Y-131636396D01*
%TO.N,D5*%
X252931105Y-91810000D02*
X256380000Y-91810000D01*
X251000000Y-93741105D02*
X252931105Y-91810000D01*
X238190000Y-138000000D02*
X244500000Y-138000000D01*
X251000000Y-131500000D02*
X251000000Y-93741105D01*
X236190000Y-136000000D02*
X238190000Y-138000000D01*
X244500000Y-138000000D02*
X251000000Y-131500000D01*
%TO.N,D4*%
X252793705Y-89270000D02*
X256380000Y-89270000D01*
X250500000Y-115500000D02*
X250500000Y-91563705D01*
X245000000Y-121000000D02*
X250500000Y-115500000D01*
X250500000Y-91563705D02*
X252793705Y-89270000D01*
X238190000Y-121000000D02*
X245000000Y-121000000D01*
X236190000Y-119000000D02*
X238190000Y-121000000D01*
%TO.N,D3*%
X248270000Y-86730000D02*
X256380000Y-86730000D01*
X241000000Y-94000000D02*
X248270000Y-86730000D01*
X238500000Y-94000000D02*
X241000000Y-94000000D01*
X236190000Y-96310000D02*
X238500000Y-94000000D01*
X236190000Y-102000000D02*
X236190000Y-96310000D01*
%TO.N,D2*%
X248310000Y-84190000D02*
X256380000Y-84190000D01*
X246222500Y-86277500D02*
X248310000Y-84190000D01*
X237467500Y-86277500D02*
X246222500Y-86277500D01*
X236190000Y-85000000D02*
X237467500Y-86277500D01*
%TO.N,D29*%
X253380000Y-85440000D02*
X266921105Y-85440000D01*
X268171105Y-84190000D02*
X271620000Y-84190000D01*
X266921105Y-85440000D02*
X268171105Y-84190000D01*
%TO.N,outer_mod*%
X158275000Y-150535000D02*
X153810000Y-155000000D01*
X153810000Y-155000000D02*
X151650000Y-155000000D01*
X158275000Y-146250000D02*
X158275000Y-150535000D01*
%TO.N,outer_bottom*%
X153810000Y-138000000D02*
X151650000Y-138000000D01*
X158275000Y-129250000D02*
X158275000Y-133535000D01*
X158275000Y-133535000D02*
X153810000Y-138000000D01*
%TO.N,outer_home*%
X158275000Y-112250000D02*
X158275000Y-116535000D01*
X153810000Y-121000000D02*
X151650000Y-121000000D01*
X158275000Y-116535000D02*
X153810000Y-121000000D01*
%TO.N,outer_top*%
X153810000Y-104000000D02*
X151650000Y-104000000D01*
X158275000Y-99535000D02*
X153810000Y-104000000D01*
X158275000Y-95250000D02*
X158275000Y-99535000D01*
%TO.N,outer_num*%
X158275000Y-78250000D02*
X158275000Y-82535000D01*
X153810000Y-87000000D02*
X151650000Y-87000000D01*
X158275000Y-82535000D02*
X153810000Y-87000000D01*
%TO.N,D28*%
X253380000Y-87980000D02*
X266921105Y-87980000D01*
X266921105Y-87980000D02*
X268171105Y-86730000D01*
X268171105Y-86730000D02*
X271620000Y-86730000D01*
%TO.N,pinky_mod*%
X169650000Y-155000000D02*
X171810000Y-155000000D01*
X176275000Y-150535000D02*
X171810000Y-155000000D01*
X176275000Y-146250000D02*
X176275000Y-150535000D01*
%TO.N,pinky_bottom*%
X176275000Y-133535000D02*
X171810000Y-138000000D01*
X176275000Y-129250000D02*
X176275000Y-133535000D01*
X171810000Y-138000000D02*
X169650000Y-138000000D01*
%TO.N,pinky_home*%
X169650000Y-121000000D02*
X171810000Y-121000000D01*
X176275000Y-112250000D02*
X176275000Y-116535000D01*
X176275000Y-116535000D02*
X171810000Y-121000000D01*
%TO.N,pinky_top*%
X176275000Y-99535000D02*
X171810000Y-104000000D01*
X176275000Y-95250000D02*
X176275000Y-99535000D01*
X171810000Y-104000000D02*
X169650000Y-104000000D01*
%TO.N,pinky_num*%
X176275000Y-78250000D02*
X176275000Y-82535000D01*
X176275000Y-82535000D02*
X171810000Y-87000000D01*
X171810000Y-87000000D02*
X169650000Y-87000000D01*
%TO.N,D27*%
X253380000Y-90520000D02*
X266921105Y-90520000D01*
X266921105Y-90520000D02*
X268171105Y-89270000D01*
X268171105Y-89270000D02*
X271620000Y-89270000D01*
%TO.N,ring_mod*%
X187650000Y-153000000D02*
X189810000Y-153000000D01*
X194275000Y-148535000D02*
X189810000Y-153000000D01*
X194275000Y-144250000D02*
X194275000Y-148535000D01*
%TO.N,ring_bottom*%
X194275000Y-131535000D02*
X189810000Y-136000000D01*
X189810000Y-136000000D02*
X187650000Y-136000000D01*
X194275000Y-127250000D02*
X194275000Y-131535000D01*
%TO.N,ring_home*%
X187650000Y-119000000D02*
X189810000Y-119000000D01*
X194275000Y-114535000D02*
X189810000Y-119000000D01*
X194275000Y-110250000D02*
X194275000Y-114535000D01*
%TO.N,ring_top*%
X194275000Y-93250000D02*
X194275000Y-97535000D01*
X189810000Y-102000000D02*
X187650000Y-102000000D01*
X194275000Y-97535000D02*
X189810000Y-102000000D01*
%TO.N,ring_num*%
X194275000Y-80535000D02*
X189810000Y-85000000D01*
X194275000Y-76250000D02*
X194275000Y-80535000D01*
X189810000Y-85000000D02*
X187650000Y-85000000D01*
%TO.N,D26*%
X266921105Y-93060000D02*
X268171105Y-91810000D01*
X268171105Y-91810000D02*
X271620000Y-91810000D01*
X253380000Y-93060000D02*
X266921105Y-93060000D01*
%TO.N,middle_mod*%
X212275000Y-142250000D02*
X212275000Y-146535000D01*
X205650000Y-151000000D02*
X207810000Y-151000000D01*
X212275000Y-146535000D02*
X207810000Y-151000000D01*
%TO.N,middle_bottom*%
X207810000Y-134000000D02*
X205650000Y-134000000D01*
X212275000Y-125250000D02*
X212275000Y-129535000D01*
X212275000Y-129535000D02*
X207810000Y-134000000D01*
%TO.N,middle_home*%
X205650000Y-117000000D02*
X207810000Y-117000000D01*
X212275000Y-112535000D02*
X207810000Y-117000000D01*
X212275000Y-108250000D02*
X212275000Y-112535000D01*
%TO.N,middle_top*%
X207810000Y-100000000D02*
X205650000Y-100000000D01*
X212275000Y-91250000D02*
X212275000Y-95535000D01*
X212275000Y-95535000D02*
X207810000Y-100000000D01*
%TO.N,middle_num*%
X207810000Y-83000000D02*
X205650000Y-83000000D01*
%TO.N,D22*%
X266921105Y-95600000D02*
X268171105Y-94350000D01*
X268171105Y-94350000D02*
X271620000Y-94350000D01*
X253380000Y-95600000D02*
X266921105Y-95600000D01*
%TO.N,index_bottom*%
X225810000Y-136000000D02*
X223650000Y-136000000D01*
X230275000Y-127250000D02*
X230275000Y-131535000D01*
X230275000Y-131535000D02*
X225810000Y-136000000D01*
%TO.N,index_home*%
X230275000Y-114535000D02*
X225810000Y-119000000D01*
X230275000Y-110250000D02*
X230275000Y-114535000D01*
X223650000Y-119000000D02*
X225810000Y-119000000D01*
%TO.N,index_top*%
X225810000Y-102000000D02*
X223650000Y-102000000D01*
X230275000Y-93250000D02*
X230275000Y-97535000D01*
X230275000Y-97535000D02*
X225810000Y-102000000D01*
%TO.N,index_num*%
X230275000Y-76250000D02*
X230275000Y-80535000D01*
X230275000Y-80535000D02*
X225810000Y-85000000D01*
X225810000Y-85000000D02*
X223650000Y-85000000D01*
%TO.N,D20*%
X266921105Y-98140000D02*
X268171105Y-96890000D01*
X253380000Y-98140000D02*
X266921105Y-98140000D01*
X268171105Y-96890000D02*
X271620000Y-96890000D01*
X236725000Y-74050000D02*
X236875000Y-74200000D01*
%TO.N,inner_bottom*%
X248275000Y-131535000D02*
X243810000Y-136000000D01*
X248275000Y-127250000D02*
X248275000Y-131535000D01*
X243810000Y-136000000D02*
X241650000Y-136000000D01*
%TO.N,inner_home*%
X248275000Y-114535000D02*
X243810000Y-119000000D01*
X248275000Y-110250000D02*
X248275000Y-114535000D01*
X241650000Y-119000000D02*
X243810000Y-119000000D01*
%TO.N,inner_top*%
X248275000Y-93250000D02*
X248275000Y-97535000D01*
X243810000Y-102000000D02*
X241650000Y-102000000D01*
X248275000Y-97535000D02*
X243810000Y-102000000D01*
%TO.N,inner_num*%
X243810000Y-85000000D02*
X241650000Y-85000000D01*
X248275000Y-80535000D02*
X243810000Y-85000000D01*
X248275000Y-76250000D02*
X248275000Y-80535000D01*
%TO.N,thumbInner_thumb*%
X228756692Y-154710558D02*
X230883877Y-155085639D01*
%TO.N,thumbMiddle_thumb*%
X247250967Y-157175241D02*
X249337366Y-157734291D01*
%TO.N,thumbOuter_thumb*%
X264663706Y-162986904D02*
X266729324Y-163618427D01*
%TO.N,D6*%
X162190000Y-157000000D02*
X148190000Y-157000000D01*
X200190000Y-151000000D02*
X202350000Y-151000000D01*
X184190000Y-155000000D02*
X182190000Y-153000000D01*
X148350000Y-155000000D02*
X146190000Y-155000000D01*
X164190000Y-155000000D02*
X162190000Y-157000000D01*
X178190000Y-157000000D02*
X166190000Y-157000000D01*
X148190000Y-157000000D02*
X146190000Y-155000000D01*
X164190000Y-155000000D02*
X166350000Y-155000000D01*
X182190000Y-153000000D02*
X178190000Y-157000000D01*
X200190000Y-151000000D02*
X196190000Y-155000000D01*
X196190000Y-155000000D02*
X184190000Y-155000000D01*
X166190000Y-157000000D02*
X164190000Y-155000000D01*
X182190000Y-153000000D02*
X184350000Y-153000000D01*
%TO.N,D5*%
X196190000Y-138000000D02*
X184190000Y-138000000D01*
X220190000Y-138000000D02*
X218190000Y-136000000D01*
X148190000Y-140000000D02*
X146190000Y-138000000D01*
X200190000Y-134000000D02*
X196190000Y-138000000D01*
X236190000Y-136000000D02*
X234190000Y-138000000D01*
X218190000Y-136000000D02*
X202190000Y-136000000D01*
X202350000Y-134000000D02*
X200190000Y-134000000D01*
X156714555Y-138000000D02*
X154714555Y-140000000D01*
X234190000Y-138000000D02*
X220190000Y-138000000D01*
X202190000Y-136000000D02*
X200190000Y-134000000D01*
X220350000Y-136000000D02*
X218190000Y-136000000D01*
X238350000Y-136000000D02*
X236190000Y-136000000D01*
X154714555Y-140000000D02*
X148190000Y-140000000D01*
X166190000Y-140000000D02*
X164190000Y-138000000D01*
X184190000Y-138000000D02*
X182190000Y-136000000D01*
X178190000Y-140000000D02*
X166190000Y-140000000D01*
X166350000Y-138000000D02*
X164190000Y-138000000D01*
X148350000Y-138000000D02*
X146190000Y-138000000D01*
X182190000Y-136000000D02*
X178190000Y-140000000D01*
X184350000Y-136000000D02*
X182190000Y-136000000D01*
X164190000Y-138000000D02*
X156714555Y-138000000D01*
%TO.N,D4*%
X218190000Y-119000000D02*
X220350000Y-119000000D01*
X236190000Y-119000000D02*
X238350000Y-119000000D01*
X182190000Y-119000000D02*
X184350000Y-119000000D01*
X202190000Y-119000000D02*
X200190000Y-117000000D01*
X220190000Y-121000000D02*
X218190000Y-119000000D01*
X164190000Y-121000000D02*
X162190000Y-123000000D01*
X200190000Y-117000000D02*
X196190000Y-121000000D01*
X166190000Y-123000000D02*
X164190000Y-121000000D01*
X182190000Y-119000000D02*
X178190000Y-123000000D01*
X200190000Y-117000000D02*
X202350000Y-117000000D01*
X196190000Y-121000000D02*
X184190000Y-121000000D01*
X184190000Y-121000000D02*
X182190000Y-119000000D01*
X218190000Y-119000000D02*
X202190000Y-119000000D01*
X236190000Y-119000000D02*
X234190000Y-121000000D01*
X234190000Y-121000000D02*
X220190000Y-121000000D01*
X178190000Y-123000000D02*
X166190000Y-123000000D01*
X148190000Y-123000000D02*
X146190000Y-121000000D01*
X162190000Y-123000000D02*
X148190000Y-123000000D01*
X164190000Y-121000000D02*
X166350000Y-121000000D01*
X148350000Y-121000000D02*
X146190000Y-121000000D01*
%TO.N,D3*%
X202190000Y-102000000D02*
X200190000Y-100000000D01*
X220190000Y-104000000D02*
X218190000Y-102000000D01*
X196190000Y-104000000D02*
X184190000Y-104000000D01*
X166190000Y-106000000D02*
X164190000Y-104000000D01*
X238350000Y-102000000D02*
X236190000Y-102000000D01*
X162190000Y-106000000D02*
X148190000Y-106000000D01*
X148350000Y-104000000D02*
X146190000Y-104000000D01*
X202350000Y-100000000D02*
X200190000Y-100000000D01*
X218190000Y-102000000D02*
X202190000Y-102000000D01*
X236190000Y-102000000D02*
X234190000Y-104000000D01*
X234190000Y-104000000D02*
X220190000Y-104000000D01*
X166350000Y-104000000D02*
X164190000Y-104000000D01*
X182190000Y-102000000D02*
X178190000Y-106000000D01*
X164190000Y-104000000D02*
X162190000Y-106000000D01*
X200190000Y-100000000D02*
X196190000Y-104000000D01*
X148190000Y-106000000D02*
X146190000Y-104000000D01*
X184190000Y-104000000D02*
X182190000Y-102000000D01*
X184350000Y-102000000D02*
X182190000Y-102000000D01*
X220350000Y-102000000D02*
X218190000Y-102000000D01*
X178190000Y-106000000D02*
X166190000Y-106000000D01*
%TO.N,D2*%
X166350000Y-87000000D02*
X164190000Y-87000000D01*
X157000000Y-87000000D02*
X155000000Y-89000000D01*
X182190000Y-85000000D02*
X178190000Y-89000000D01*
X227000000Y-87000000D02*
X220190000Y-87000000D01*
X184190000Y-87000000D02*
X182190000Y-85000000D01*
X148350000Y-87000000D02*
X146190000Y-87000000D01*
X148190000Y-89000000D02*
X146190000Y-87000000D01*
X220190000Y-87000000D02*
X218190000Y-85000000D01*
X202190000Y-85000000D02*
X200190000Y-83000000D01*
X202350000Y-83000000D02*
X200190000Y-83000000D01*
X218190000Y-85000000D02*
X202190000Y-85000000D01*
X164190000Y-87000000D02*
X157000000Y-87000000D01*
X196190000Y-87000000D02*
X184190000Y-87000000D01*
X184350000Y-85000000D02*
X182190000Y-85000000D01*
X238350000Y-85000000D02*
X236190000Y-85000000D01*
X229000000Y-85000000D02*
X227000000Y-87000000D01*
X236190000Y-85000000D02*
X229000000Y-85000000D01*
X220350000Y-85000000D02*
X218190000Y-85000000D01*
X178190000Y-89000000D02*
X166190000Y-89000000D01*
X155000000Y-89000000D02*
X148190000Y-89000000D01*
X166190000Y-89000000D02*
X164190000Y-87000000D01*
X200190000Y-83000000D02*
X196190000Y-87000000D01*
%TO.N,D23*%
X253380000Y-100680000D02*
X266921105Y-100680000D01*
X241977012Y-155762089D02*
X244063411Y-156321139D01*
X259442282Y-161390555D02*
X261507900Y-162022078D01*
X266921105Y-100680000D02*
X268171105Y-99430000D01*
X268171105Y-99430000D02*
X271620000Y-99430000D01*
X223379641Y-153762439D02*
X225506826Y-154137520D01*
%TO.N,RAW*%
X268171105Y-74030000D02*
X271620000Y-74030000D01*
X266921105Y-75280000D02*
X268171105Y-74030000D01*
X253380000Y-75280000D02*
X266921105Y-75280000D01*
%TO.N,GND*%
X266783705Y-77820000D02*
X268122405Y-76481300D01*
X264954358Y-116900877D02*
X262900877Y-116900877D01*
X262900877Y-116900877D02*
X261500000Y-115500000D01*
X253380000Y-77820000D02*
X266783705Y-77820000D01*
X261500000Y-115500000D02*
X261500000Y-111000000D01*
X268122405Y-76481300D02*
X271531300Y-76481300D01*
X261500000Y-111000000D02*
X262486978Y-110013022D01*
X262486978Y-110013022D02*
X264545144Y-110013022D01*
X271531300Y-76481300D02*
X271620000Y-76570000D01*
%TO.N,RUN*%
X268171105Y-79110000D02*
X271620000Y-79110000D01*
X253380000Y-80360000D02*
X266921105Y-80360000D01*
X266921105Y-80360000D02*
X268171105Y-79110000D01*
%TO.N,VCC*%
X253380000Y-82900000D02*
X266921105Y-82900000D01*
X266921105Y-82900000D02*
X268171105Y-81650000D01*
X268171105Y-81650000D02*
X271620000Y-81650000D01*
%TO.N,D0*%
X271532823Y-109597877D02*
X275000000Y-106130700D01*
X272028895Y-75280000D02*
X268620000Y-75280000D01*
X271942037Y-116485732D02*
X271942037Y-110007091D01*
X275000000Y-106130700D02*
X275000000Y-78251105D01*
X271942037Y-110007091D02*
X271532823Y-109597877D01*
X275000000Y-78251105D02*
X272028895Y-75280000D01*
%TO.N,D1*%
X268538104Y-109775796D02*
X273500000Y-104813900D01*
X273500000Y-79291105D02*
X272028895Y-77820000D01*
X272028895Y-77820000D02*
X268620000Y-77820000D01*
X268947318Y-110185010D02*
X268538104Y-109775796D01*
X273500000Y-104813900D02*
X273500000Y-79291105D01*
X268947318Y-116663651D02*
X268947318Y-110185010D01*
%TD*%
M02*
