%TF.GenerationSoftware,KiCad,Pcbnew,8.0.4*%
%TF.CreationDate,2024-10-05T17:03:56-04:00*%
%TF.ProjectId,mzizzi-split62,6d7a697a-7a69-42d7-9370-6c697436322e,v1.0.0*%
%TF.SameCoordinates,Original*%
%TF.FileFunction,Profile,NP*%
%FSLAX46Y46*%
G04 Gerber Fmt 4.6, Leading zero omitted, Abs format (unit mm)*
G04 Created by KiCad (PCBNEW 8.0.4) date 2024-10-05 17:03:56*
%MOMM*%
%LPD*%
G01*
G04 APERTURE LIST*
%TA.AperFunction,Profile*%
%ADD10C,0.150000*%
%TD*%
G04 APERTURE END LIST*
D10*
X185579635Y-159129343D02*
G75*
G02*
X186439801Y-158996760I882265J-2867357D01*
G01*
X179931154Y-160867337D02*
G75*
G02*
X179048897Y-160999999I-882254J2867337D01*
G01*
X276114221Y-71881161D02*
X279219232Y-150203171D01*
X192666155Y-67000000D02*
X215333845Y-67000000D01*
X174582254Y-68990861D02*
X192334861Y-67018349D01*
X192334860Y-67018349D02*
G75*
G02*
X192666155Y-66999996I331340J-2981751D01*
G01*
X141333590Y-70842578D02*
X174417369Y-69004591D01*
X215333845Y-67000000D02*
G75*
G02*
X215665139Y-67018353I-45J-3000100D01*
G01*
X174582254Y-68990861D02*
G75*
G02*
X174417369Y-69004590I-331254J2981461D01*
G01*
X185579635Y-159129343D02*
X179931155Y-160867337D01*
X273116576Y-69000000D02*
G75*
G02*
X276114245Y-71881160I24J-3000000D01*
G01*
X138500000Y-158000000D02*
X138500000Y-73837959D01*
X233666155Y-69000000D02*
X273116576Y-69000000D01*
X273627240Y-169068648D02*
G75*
G02*
X270076041Y-171112926I-2868940J877148D01*
G01*
X215665139Y-67018349D02*
X233334861Y-68981651D01*
X216869742Y-158772680D02*
X186439801Y-158996761D01*
X270076043Y-171112918D02*
X217574116Y-158851213D01*
X233666155Y-69000000D02*
G75*
G02*
X233334861Y-68981647I45J3000100D01*
G01*
X216869742Y-158772679D02*
G75*
G02*
X217574114Y-158851220I22058J-2999921D01*
G01*
X279219232Y-150203172D02*
G75*
G02*
X279090497Y-151199125I-2997632J-118828D01*
G01*
X279090501Y-151199126D02*
X273627240Y-169068648D01*
X141500000Y-161000000D02*
G75*
G02*
X138500000Y-158000000I0J3000000D01*
G01*
X138500000Y-73837959D02*
G75*
G02*
X141333592Y-70842619I3000000J-41D01*
G01*
X141500000Y-161000000D02*
X179048897Y-161000000D01*
M02*
