%TF.GenerationSoftware,KiCad,Pcbnew,8.0.4*%
%TF.CreationDate,2024-10-05T17:03:56-04:00*%
%TF.ProjectId,mzizzi-split62,6d7a697a-7a69-42d7-9370-6c697436322e,v1.0.0*%
%TF.SameCoordinates,Original*%
%TF.FileFunction,Soldermask,Top*%
%TF.FilePolarity,Negative*%
%FSLAX46Y46*%
G04 Gerber Fmt 4.6, Leading zero omitted, Abs format (unit mm)*
G04 Created by KiCad (PCBNEW 8.0.4) date 2024-10-05 17:03:56*
%MOMM*%
%LPD*%
G01*
G04 APERTURE LIST*
G04 Aperture macros list*
%AMRoundRect*
0 Rectangle with rounded corners*
0 $1 Rounding radius*
0 $2 $3 $4 $5 $6 $7 $8 $9 X,Y pos of 4 corners*
0 Add a 4 corners polygon primitive as box body*
4,1,4,$2,$3,$4,$5,$6,$7,$8,$9,$2,$3,0*
0 Add four circle primitives for the rounded corners*
1,1,$1+$1,$2,$3*
1,1,$1+$1,$4,$5*
1,1,$1+$1,$6,$7*
1,1,$1+$1,$8,$9*
0 Add four rect primitives between the rounded corners*
20,1,$1+$1,$2,$3,$4,$5,0*
20,1,$1+$1,$4,$5,$6,$7,0*
20,1,$1+$1,$6,$7,$8,$9,0*
20,1,$1+$1,$8,$9,$2,$3,0*%
%AMHorizOval*
0 Thick line with rounded ends*
0 $1 width*
0 $2 $3 position (X,Y) of the first rounded end (center of the circle)*
0 $4 $5 position (X,Y) of the second rounded end (center of the circle)*
0 Add line between two ends*
20,1,$1,$2,$3,$4,$5,0*
0 Add two circle primitives to create the rounded ends*
1,1,$1,$2,$3*
1,1,$1,$4,$5*%
G04 Aperture macros list end*
%ADD10RoundRect,0.050000X-0.876300X0.876300X-0.876300X-0.876300X0.876300X-0.876300X0.876300X0.876300X0*%
%ADD11C,1.852600*%
%ADD12C,1.801800*%
%ADD13C,3.100000*%
%ADD14C,3.529000*%
%ADD15RoundRect,0.050000X-1.300000X-1.300000X1.300000X-1.300000X1.300000X1.300000X-1.300000X1.300000X0*%
%ADD16C,1.600000*%
%ADD17HorizOval,1.700000X-0.299472X-0.017792X0.299472X0.017792X0*%
%ADD18RoundRect,0.050000X-0.889000X-0.889000X0.889000X-0.889000X0.889000X0.889000X-0.889000X0.889000X0*%
%ADD19RoundRect,0.050000X-0.450000X-0.600000X0.450000X-0.600000X0.450000X0.600000X-0.450000X0.600000X0*%
%ADD20C,2.005000*%
%ADD21C,0.800000*%
%ADD22C,4.500000*%
%ADD23RoundRect,0.050000X-1.592168X-0.919239X0.919239X-1.592168X1.592168X0.919239X-0.919239X1.592168X0*%
%ADD24RoundRect,0.050000X-1.110073X-0.590236X0.590236X-1.110073X1.110073X0.590236X-0.590236X1.110073X0*%
%ADD25RoundRect,0.050000X-0.605760X-0.442216X0.254914X-0.705350X0.605760X0.442216X-0.254914X0.705350X0*%
%ADD26RoundRect,0.050000X-1.505993X-1.054507X1.054507X-1.505993X1.505993X1.054507X-1.054507X1.505993X0*%
%ADD27RoundRect,0.050000X-1.029867X-0.721121X0.721121X-1.029867X1.029867X0.721121X-0.721121X1.029867X0*%
%ADD28RoundRect,0.050000X-0.547352X-0.512743X0.338975X-0.669026X0.547352X0.512743X-0.338975X0.669026X0*%
%ADD29RoundRect,0.050000X-1.623279X-0.863113X0.863113X-1.623279X1.623279X0.863113X-0.863113X1.623279X0*%
%ADD30RoundRect,0.050000X-1.088798X-0.628618X0.628618X-1.088798X1.088798X0.628618X-0.628618X1.088798X0*%
%ADD31RoundRect,0.050000X-0.589958X-0.463087X0.279375X-0.696024X0.589958X0.463087X-0.279375X0.696024X0*%
G04 APERTURE END LIST*
D10*
%TO.C,MCU2*%
X271620000Y-74030000D03*
D11*
X271620000Y-76570000D03*
X271620000Y-79110000D03*
X271620000Y-81650000D03*
X271620000Y-84190000D03*
X271620000Y-86730000D03*
X271620000Y-89270000D03*
X271620000Y-91810000D03*
X271620000Y-94350000D03*
X271620000Y-96890000D03*
X271620000Y-99430000D03*
X271620000Y-101970000D03*
X256380000Y-74030000D03*
X256380000Y-76570000D03*
X256380000Y-79110000D03*
X256380000Y-81650000D03*
X256380000Y-84190000D03*
X256380000Y-86730000D03*
X256380000Y-89270000D03*
X256380000Y-91810000D03*
X256380000Y-94350000D03*
X256380000Y-96890000D03*
X256380000Y-99430000D03*
X256380000Y-101970000D03*
%TD*%
D12*
%TO.C,S11*%
X180500000Y-148000000D03*
D13*
X181000000Y-144250000D03*
X186000000Y-142050000D03*
X186000000Y-142050000D03*
D14*
X186000000Y-148000000D03*
D13*
X191000000Y-144250000D03*
D12*
X191500000Y-148000000D03*
D15*
X189275000Y-142050000D03*
X177725000Y-144250000D03*
%TD*%
D16*
%TO.C,TRRS1*%
X273266412Y-111798939D03*
X266278733Y-112214083D03*
X273402816Y-114094890D03*
X266415137Y-114510035D03*
D17*
X263583485Y-112374210D03*
X263719890Y-114670162D03*
X264545144Y-110013022D03*
X264954358Y-116900877D03*
X268538104Y-109775796D03*
X268947318Y-116663651D03*
X271532823Y-109597877D03*
X271942037Y-116485732D03*
%TD*%
D18*
%TO.C,D23*%
X218190000Y-102000000D03*
D19*
X220350000Y-102000000D03*
X223650000Y-102000000D03*
D20*
X225810000Y-102000000D03*
%TD*%
D12*
%TO.C,S3*%
X144500000Y-116000000D03*
D13*
X145000000Y-112250000D03*
X150000000Y-110050000D03*
X150000000Y-110050000D03*
D14*
X150000000Y-116000000D03*
D13*
X155000000Y-112250000D03*
D12*
X155500000Y-116000000D03*
D15*
X153275000Y-110050000D03*
X141725000Y-112250000D03*
%TD*%
D12*
%TO.C,S1*%
X144500000Y-150000000D03*
D13*
X145000000Y-146250000D03*
X150000000Y-144050000D03*
X150000000Y-144050000D03*
D14*
X150000000Y-150000000D03*
D13*
X155000000Y-146250000D03*
D12*
X155500000Y-150000000D03*
D15*
X153275000Y-144050000D03*
X141725000Y-146250000D03*
%TD*%
D18*
%TO.C,D9*%
X164190000Y-104000000D03*
D19*
X166350000Y-104000000D03*
X169650000Y-104000000D03*
D20*
X171810000Y-104000000D03*
%TD*%
D18*
%TO.C,D20*%
X200190000Y-83000000D03*
D19*
X202350000Y-83000000D03*
X205650000Y-83000000D03*
D20*
X207810000Y-83000000D03*
%TD*%
D18*
%TO.C,D19*%
X200190000Y-100000000D03*
D19*
X202350000Y-100000000D03*
X205650000Y-100000000D03*
D20*
X207810000Y-100000000D03*
%TD*%
D12*
%TO.C,S9*%
X162500000Y-99000000D03*
D13*
X163000000Y-95250000D03*
X168000000Y-93050000D03*
X168000000Y-93050000D03*
D14*
X168000000Y-99000000D03*
D13*
X173000000Y-95250000D03*
D12*
X173500000Y-99000000D03*
D15*
X171275000Y-93050000D03*
X159725000Y-95250000D03*
%TD*%
D12*
%TO.C,S8*%
X162500000Y-116000000D03*
D13*
X163000000Y-112250000D03*
X168000000Y-110050000D03*
X168000000Y-110050000D03*
D14*
X168000000Y-116000000D03*
D13*
X173000000Y-112250000D03*
D12*
X173500000Y-116000000D03*
D15*
X171275000Y-110050000D03*
X159725000Y-112250000D03*
%TD*%
D12*
%TO.C,S6*%
X162500000Y-150000000D03*
D13*
X163000000Y-146250000D03*
X168000000Y-144050000D03*
X168000000Y-144050000D03*
D14*
X168000000Y-150000000D03*
D13*
X173000000Y-146250000D03*
D12*
X173500000Y-150000000D03*
D15*
X171275000Y-144050000D03*
X159725000Y-146250000D03*
%TD*%
D12*
%TO.C,S27*%
X234500000Y-97000000D03*
D13*
X235000000Y-93250000D03*
X240000000Y-91050000D03*
X240000000Y-91050000D03*
D14*
X240000000Y-97000000D03*
D13*
X245000000Y-93250000D03*
D12*
X245500000Y-97000000D03*
D15*
X243275000Y-91050000D03*
X231725000Y-93250000D03*
%TD*%
D21*
%TO.C,_1*%
X248204516Y-140866326D03*
X248973294Y-139864434D03*
X248369352Y-142118376D03*
X250225344Y-139699598D03*
D22*
X249798294Y-141293376D03*
D21*
X249371244Y-142887154D03*
X251227236Y-140468376D03*
X250623294Y-142722318D03*
X251392072Y-141720426D03*
%TD*%
D12*
%TO.C,S16*%
X198500000Y-146000000D03*
D13*
X199000000Y-142250000D03*
X204000000Y-140050000D03*
X204000000Y-140050000D03*
D14*
X204000000Y-146000000D03*
D13*
X209000000Y-142250000D03*
D12*
X209500000Y-146000000D03*
D15*
X207275000Y-140050000D03*
X195725000Y-142250000D03*
%TD*%
D18*
%TO.C,D11*%
X182190000Y-153000000D03*
D19*
X184350000Y-153000000D03*
X187650000Y-153000000D03*
D20*
X189810000Y-153000000D03*
%TD*%
D10*
%TO.C,MCU1*%
X253380000Y-75280000D03*
D11*
X253380000Y-77820000D03*
X253380000Y-80360000D03*
X253380000Y-82900000D03*
X253380000Y-85440000D03*
X253380000Y-87980000D03*
X253380000Y-90520000D03*
X253380000Y-93060000D03*
X253380000Y-95600000D03*
X253380000Y-98140000D03*
X253380000Y-100680000D03*
X253380000Y-103220000D03*
X268620000Y-75280000D03*
X268620000Y-77820000D03*
X268620000Y-80360000D03*
X268620000Y-82900000D03*
X268620000Y-85440000D03*
X268620000Y-87980000D03*
X268620000Y-90520000D03*
X268620000Y-93060000D03*
X268620000Y-95600000D03*
X268620000Y-98140000D03*
X268620000Y-100680000D03*
X268620000Y-103220000D03*
%TD*%
D18*
%TO.C,D7*%
X164190000Y-138000000D03*
D19*
X166350000Y-138000000D03*
X169650000Y-138000000D03*
D20*
X171810000Y-138000000D03*
%TD*%
D18*
%TO.C,D2*%
X146190000Y-138000000D03*
D19*
X148350000Y-138000000D03*
X151650000Y-138000000D03*
D20*
X153810000Y-138000000D03*
%TD*%
D18*
%TO.C,D8*%
X164190000Y-121000000D03*
D19*
X166350000Y-121000000D03*
X169650000Y-121000000D03*
D20*
X171810000Y-121000000D03*
%TD*%
D12*
%TO.C,S28*%
X234500000Y-80000000D03*
D13*
X235000000Y-76250000D03*
X240000000Y-74050000D03*
X240000000Y-74050000D03*
D14*
X240000000Y-80000000D03*
D13*
X245000000Y-76250000D03*
D12*
X245500000Y-80000000D03*
D15*
X243275000Y-74050000D03*
X231725000Y-76250000D03*
%TD*%
D12*
%TO.C,S2*%
X144500000Y-133000000D03*
D13*
X145000000Y-129250000D03*
X150000000Y-127050000D03*
X150000000Y-127050000D03*
D14*
X150000000Y-133000000D03*
D13*
X155000000Y-129250000D03*
D12*
X155500000Y-133000000D03*
D15*
X153275000Y-127050000D03*
X141725000Y-129250000D03*
%TD*%
D18*
%TO.C,D12*%
X182190000Y-136000000D03*
D19*
X184350000Y-136000000D03*
X187650000Y-136000000D03*
D20*
X189810000Y-136000000D03*
%TD*%
D12*
%TO.C,S10*%
X162500000Y-82000000D03*
D13*
X163000000Y-78250000D03*
X168000000Y-76050000D03*
X168000000Y-76050000D03*
D14*
X168000000Y-82000000D03*
D13*
X173000000Y-78250000D03*
D12*
X173500000Y-82000000D03*
D15*
X171275000Y-76050000D03*
X159725000Y-78250000D03*
%TD*%
D12*
%TO.C,S19*%
X198500000Y-95000000D03*
D13*
X199000000Y-91250000D03*
X204000000Y-89050000D03*
X204000000Y-89050000D03*
D14*
X204000000Y-95000000D03*
D13*
X209000000Y-91250000D03*
D12*
X209500000Y-95000000D03*
D15*
X207275000Y-89050000D03*
X195725000Y-91250000D03*
%TD*%
D21*
%TO.C,_2*%
X229350000Y-88500000D03*
X229833274Y-87333274D03*
X229833274Y-89666726D03*
X231000000Y-86850000D03*
D22*
X231000000Y-88500000D03*
D21*
X231000000Y-90150000D03*
X232166726Y-87333274D03*
X232166726Y-89666726D03*
X232650000Y-88500000D03*
%TD*%
D12*
%TO.C,S20*%
X198500000Y-78000000D03*
D13*
X199000000Y-74250000D03*
X204000000Y-72050000D03*
X204000000Y-72050000D03*
D14*
X204000000Y-78000000D03*
D13*
X209000000Y-74250000D03*
D12*
X209500000Y-78000000D03*
D15*
X207275000Y-72050000D03*
X195725000Y-74250000D03*
%TD*%
D12*
%TO.C,S14*%
X180500000Y-97000000D03*
D13*
X181000000Y-93250000D03*
X186000000Y-91050000D03*
X186000000Y-91050000D03*
D14*
X186000000Y-97000000D03*
D13*
X191000000Y-93250000D03*
D12*
X191500000Y-97000000D03*
D15*
X189275000Y-91050000D03*
X177725000Y-93250000D03*
%TD*%
D18*
%TO.C,D13*%
X182190000Y-119000000D03*
D19*
X184350000Y-119000000D03*
X187650000Y-119000000D03*
D20*
X189810000Y-119000000D03*
%TD*%
D18*
%TO.C,D18*%
X200190000Y-117000000D03*
D19*
X202350000Y-117000000D03*
X205650000Y-117000000D03*
D20*
X207810000Y-117000000D03*
%TD*%
D18*
%TO.C,D21*%
X218190000Y-136000000D03*
D19*
X220350000Y-136000000D03*
X223650000Y-136000000D03*
D20*
X225810000Y-136000000D03*
%TD*%
D12*
%TO.C,S23*%
X216500000Y-97000000D03*
D13*
X217000000Y-93250000D03*
X222000000Y-91050000D03*
X222000000Y-91050000D03*
D14*
X222000000Y-97000000D03*
D13*
X227000000Y-93250000D03*
D12*
X227500000Y-97000000D03*
D15*
X225275000Y-91050000D03*
X213725000Y-93250000D03*
%TD*%
D21*
%TO.C,_3*%
X157350000Y-90500000D03*
X157833274Y-89333274D03*
X157833274Y-91666726D03*
X159000000Y-88850000D03*
D22*
X159000000Y-90500000D03*
D21*
X159000000Y-92150000D03*
X160166726Y-89333274D03*
X160166726Y-91666726D03*
X160650000Y-90500000D03*
%TD*%
D18*
%TO.C,D26*%
X236190000Y-119000000D03*
D19*
X238350000Y-119000000D03*
X241650000Y-119000000D03*
D20*
X243810000Y-119000000D03*
%TD*%
D12*
%TO.C,S22*%
X216500000Y-114000000D03*
D13*
X217000000Y-110250000D03*
X222000000Y-108050000D03*
X222000000Y-108050000D03*
D14*
X222000000Y-114000000D03*
D13*
X227000000Y-110250000D03*
D12*
X227500000Y-114000000D03*
D15*
X225275000Y-108050000D03*
X213725000Y-110250000D03*
%TD*%
D18*
%TO.C,D28*%
X236190000Y-85000000D03*
D19*
X238350000Y-85000000D03*
X241650000Y-85000000D03*
D20*
X243810000Y-85000000D03*
%TD*%
D18*
%TO.C,D25*%
X236190000Y-136000000D03*
D19*
X238350000Y-136000000D03*
X241650000Y-136000000D03*
D20*
X243810000Y-136000000D03*
%TD*%
D12*
%TO.C,S13*%
X180500000Y-114000000D03*
D13*
X181000000Y-110250000D03*
X186000000Y-108050000D03*
X186000000Y-108050000D03*
D14*
X186000000Y-114000000D03*
D13*
X191000000Y-110250000D03*
D12*
X191500000Y-114000000D03*
D15*
X189275000Y-108050000D03*
X177725000Y-110250000D03*
%TD*%
D18*
%TO.C,D6*%
X164190000Y-155000000D03*
D19*
X166350000Y-155000000D03*
X169650000Y-155000000D03*
D20*
X171810000Y-155000000D03*
%TD*%
D12*
%TO.C,S7*%
X162500000Y-133000000D03*
D13*
X163000000Y-129250000D03*
X168000000Y-127050000D03*
X168000000Y-127050000D03*
D14*
X168000000Y-133000000D03*
D13*
X173000000Y-129250000D03*
D12*
X173500000Y-133000000D03*
D15*
X171275000Y-127050000D03*
X159725000Y-129250000D03*
%TD*%
D12*
%TO.C,S25*%
X234500000Y-131000000D03*
D13*
X235000000Y-127250000D03*
X240000000Y-125050000D03*
X240000000Y-125050000D03*
D14*
X240000000Y-131000000D03*
D13*
X245000000Y-127250000D03*
D12*
X245500000Y-131000000D03*
D15*
X243275000Y-125050000D03*
X231725000Y-127250000D03*
%TD*%
D12*
%TO.C,S18*%
X198500000Y-112000000D03*
D13*
X199000000Y-108250000D03*
X204000000Y-106050000D03*
X204000000Y-106050000D03*
D14*
X204000000Y-112000000D03*
D13*
X209000000Y-108250000D03*
D12*
X209500000Y-112000000D03*
D15*
X207275000Y-106050000D03*
X195725000Y-108250000D03*
%TD*%
D12*
%TO.C,S30*%
X241638693Y-150495055D03*
D13*
X243092227Y-147002243D03*
X248491258Y-146171301D03*
X248491258Y-146171301D03*
D14*
X246951285Y-151918560D03*
D13*
X252751486Y-149590433D03*
D12*
X252263877Y-153342065D03*
D23*
X251654665Y-147018934D03*
X239928820Y-146154611D03*
%TD*%
D18*
%TO.C,D3*%
X146190000Y-121000000D03*
D19*
X148350000Y-121000000D03*
X151650000Y-121000000D03*
D20*
X153810000Y-121000000D03*
%TD*%
D18*
%TO.C,D27*%
X236190000Y-102000000D03*
D19*
X238350000Y-102000000D03*
X241650000Y-102000000D03*
D20*
X243810000Y-102000000D03*
%TD*%
D12*
%TO.C,S24*%
X216500000Y-80000000D03*
D13*
X217000000Y-76250000D03*
X222000000Y-74050000D03*
X222000000Y-74050000D03*
D14*
X222000000Y-80000000D03*
D13*
X227000000Y-76250000D03*
D12*
X227500000Y-80000000D03*
D15*
X225275000Y-74050000D03*
X213725000Y-76250000D03*
%TD*%
D24*
%TO.C,D31*%
X259442282Y-161390555D03*
D25*
X261507900Y-162022078D03*
X264663706Y-162986904D03*
D20*
X266729324Y-163618427D03*
%TD*%
D12*
%TO.C,S12*%
X180500000Y-131000000D03*
D13*
X181000000Y-127250000D03*
X186000000Y-125050000D03*
X186000000Y-125050000D03*
D14*
X186000000Y-131000000D03*
D13*
X191000000Y-127250000D03*
D12*
X191500000Y-131000000D03*
D15*
X189275000Y-125050000D03*
X177725000Y-127250000D03*
%TD*%
D12*
%TO.C,S5*%
X144500000Y-82000000D03*
D13*
X145000000Y-78250000D03*
X150000000Y-76050000D03*
X150000000Y-76050000D03*
D14*
X150000000Y-82000000D03*
D13*
X155000000Y-78250000D03*
D12*
X155500000Y-82000000D03*
D15*
X153275000Y-76050000D03*
X141725000Y-78250000D03*
%TD*%
D18*
%TO.C,D10*%
X164190000Y-87000000D03*
D19*
X166350000Y-87000000D03*
X169650000Y-87000000D03*
D20*
X171810000Y-87000000D03*
%TD*%
D12*
%TO.C,S29*%
X222583557Y-148544935D03*
D13*
X223727142Y-144938730D03*
X229033207Y-143640394D03*
X229033207Y-143640394D03*
D14*
X228000000Y-149500000D03*
D13*
X233575219Y-146675212D03*
D12*
X233416443Y-150455065D03*
D26*
X232258452Y-144209092D03*
X220501897Y-144370032D03*
%TD*%
D27*
%TO.C,D29*%
X223379640Y-153762439D03*
D28*
X225506826Y-154137520D03*
X228756692Y-154710558D03*
D20*
X230883878Y-155085639D03*
%TD*%
D18*
%TO.C,D17*%
X200190000Y-134000000D03*
D19*
X202350000Y-134000000D03*
X205650000Y-134000000D03*
D20*
X207810000Y-134000000D03*
%TD*%
D12*
%TO.C,S15*%
X180500000Y-80000000D03*
D13*
X181000000Y-76250000D03*
X186000000Y-74050000D03*
X186000000Y-74050000D03*
D14*
X186000000Y-80000000D03*
D13*
X191000000Y-76250000D03*
D12*
X191500000Y-80000000D03*
D15*
X189275000Y-74050000D03*
X177725000Y-76250000D03*
%TD*%
D18*
%TO.C,D15*%
X182190000Y-85000000D03*
D19*
X184350000Y-85000000D03*
X187650000Y-85000000D03*
D20*
X189810000Y-85000000D03*
%TD*%
D18*
%TO.C,D5*%
X146190000Y-87000000D03*
D19*
X148350000Y-87000000D03*
X151650000Y-87000000D03*
D20*
X153810000Y-87000000D03*
%TD*%
D12*
%TO.C,S4*%
X144500000Y-99000000D03*
D13*
X145000000Y-95250000D03*
X150000000Y-93050000D03*
X150000000Y-93050000D03*
D14*
X150000000Y-99000000D03*
D13*
X155000000Y-95250000D03*
D12*
X155500000Y-99000000D03*
D15*
X153275000Y-93050000D03*
X141725000Y-95250000D03*
%TD*%
D21*
%TO.C,_4*%
X157350000Y-141500000D03*
X157833274Y-140333274D03*
X157833274Y-142666726D03*
X159000000Y-139850000D03*
D22*
X159000000Y-141500000D03*
D21*
X159000000Y-143150000D03*
X160166726Y-140333274D03*
X160166726Y-142666726D03*
X160650000Y-141500000D03*
%TD*%
D12*
%TO.C,S26*%
X234500000Y-114000000D03*
D13*
X235000000Y-110250000D03*
X240000000Y-108050000D03*
X240000000Y-108050000D03*
D14*
X240000000Y-114000000D03*
D13*
X245000000Y-110250000D03*
D12*
X245500000Y-114000000D03*
D15*
X243275000Y-108050000D03*
X231725000Y-110250000D03*
%TD*%
D18*
%TO.C,D24*%
X218190000Y-85000000D03*
D19*
X220350000Y-85000000D03*
X223650000Y-85000000D03*
D20*
X225810000Y-85000000D03*
%TD*%
D12*
%TO.C,S31*%
X259287985Y-156114924D03*
D13*
X260862531Y-152674967D03*
X266287273Y-152032955D03*
X266287273Y-152032955D03*
D14*
X264547661Y-157722968D03*
D13*
X270425579Y-155598684D03*
D12*
X269807337Y-159331012D03*
D29*
X269419171Y-152990472D03*
X257730633Y-151717449D03*
%TD*%
D12*
%TO.C,S17*%
X198500000Y-129000000D03*
D13*
X199000000Y-125250000D03*
X204000000Y-123050000D03*
X204000000Y-123050000D03*
D14*
X204000000Y-129000000D03*
D13*
X209000000Y-125250000D03*
D12*
X209500000Y-129000000D03*
D15*
X207275000Y-123050000D03*
X195725000Y-125250000D03*
%TD*%
D18*
%TO.C,D1*%
X146190000Y-155000000D03*
D19*
X148350000Y-155000000D03*
X151650000Y-155000000D03*
D20*
X153810000Y-155000000D03*
%TD*%
D18*
%TO.C,D22*%
X218190000Y-119000000D03*
D19*
X220350000Y-119000000D03*
X223650000Y-119000000D03*
D20*
X225810000Y-119000000D03*
%TD*%
D18*
%TO.C,D4*%
X146190000Y-104000000D03*
D19*
X148350000Y-104000000D03*
X151650000Y-104000000D03*
D20*
X153810000Y-104000000D03*
%TD*%
D30*
%TO.C,D30*%
X241977012Y-155762088D03*
D31*
X244063411Y-156321140D03*
X247250967Y-157175240D03*
D20*
X249337366Y-157734292D03*
%TD*%
D18*
%TO.C,D16*%
X200190000Y-151000000D03*
D19*
X202350000Y-151000000D03*
X205650000Y-151000000D03*
D20*
X207810000Y-151000000D03*
%TD*%
D12*
%TO.C,S21*%
X216500000Y-131000000D03*
D13*
X217000000Y-127250000D03*
X222000000Y-125050000D03*
X222000000Y-125050000D03*
D14*
X222000000Y-131000000D03*
D13*
X227000000Y-127250000D03*
D12*
X227500000Y-131000000D03*
D15*
X225275000Y-125050000D03*
X213725000Y-127250000D03*
%TD*%
D18*
%TO.C,D14*%
X182190000Y-102000000D03*
D19*
X184350000Y-102000000D03*
X187650000Y-102000000D03*
D20*
X189810000Y-102000000D03*
%TD*%
M02*
