%TF.GenerationSoftware,KiCad,Pcbnew,8.0.4*%
%TF.CreationDate,2024-10-05T17:03:56-04:00*%
%TF.ProjectId,mzizzi-split62,6d7a697a-7a69-42d7-9370-6c697436322e,v1.0.0*%
%TF.SameCoordinates,Original*%
%TF.FileFunction,Paste,Bot*%
%TF.FilePolarity,Positive*%
%FSLAX46Y46*%
G04 Gerber Fmt 4.6, Leading zero omitted, Abs format (unit mm)*
G04 Created by KiCad (PCBNEW 8.0.4) date 2024-10-05 17:03:56*
%MOMM*%
%LPD*%
G01*
G04 APERTURE LIST*
G04 Aperture macros list*
%AMRotRect*
0 Rectangle, with rotation*
0 The origin of the aperture is its center*
0 $1 length*
0 $2 width*
0 $3 Rotation angle, in degrees counterclockwise*
0 Add horizontal line*
21,1,$1,$2,0,0,$3*%
G04 Aperture macros list end*
%ADD10R,2.600000X2.600000*%
%ADD11R,0.900000X1.200000*%
%ADD12RotRect,2.600000X2.600000X345.000000*%
%ADD13RotRect,0.900000X1.200000X343.000000*%
%ADD14RotRect,2.600000X2.600000X350.000000*%
%ADD15RotRect,0.900000X1.200000X350.000000*%
%ADD16RotRect,2.600000X2.600000X343.000000*%
%ADD17RotRect,0.900000X1.200000X345.000000*%
G04 APERTURE END LIST*
D10*
%TO.C,S11*%
X182725000Y-142050000D03*
X194275000Y-144250000D03*
%TD*%
D11*
%TO.C,D23*%
X220350000Y-102000000D03*
X223650000Y-102000000D03*
%TD*%
D10*
%TO.C,S3*%
X146725000Y-110050000D03*
X158275000Y-112250000D03*
%TD*%
%TO.C,S1*%
X146725000Y-144050000D03*
X158275000Y-146250000D03*
%TD*%
D11*
%TO.C,D9*%
X166350000Y-104000000D03*
X169650000Y-104000000D03*
%TD*%
%TO.C,D20*%
X202350000Y-83000000D03*
X205650000Y-83000000D03*
%TD*%
%TO.C,D19*%
X202350000Y-100000000D03*
X205650000Y-100000000D03*
%TD*%
D10*
%TO.C,S9*%
X164725000Y-93050000D03*
X176275000Y-95250000D03*
%TD*%
%TO.C,S8*%
X164725000Y-110050000D03*
X176275000Y-112250000D03*
%TD*%
%TO.C,S6*%
X164725000Y-144050000D03*
X176275000Y-146250000D03*
%TD*%
%TO.C,S27*%
X236725000Y-91050000D03*
X248275000Y-93250000D03*
%TD*%
%TO.C,S16*%
X200725000Y-140050000D03*
X212275000Y-142250000D03*
%TD*%
D11*
%TO.C,D11*%
X184350000Y-153000000D03*
X187650000Y-153000000D03*
%TD*%
%TO.C,D7*%
X166350000Y-138000000D03*
X169650000Y-138000000D03*
%TD*%
%TO.C,D2*%
X148350000Y-138000000D03*
X151650000Y-138000000D03*
%TD*%
%TO.C,D8*%
X166350000Y-121000000D03*
X169650000Y-121000000D03*
%TD*%
D10*
%TO.C,S28*%
X236725000Y-74050000D03*
X248275000Y-76250000D03*
%TD*%
%TO.C,S2*%
X146725000Y-127050000D03*
X158275000Y-129250000D03*
%TD*%
D11*
%TO.C,D12*%
X184350000Y-136000000D03*
X187650000Y-136000000D03*
%TD*%
D10*
%TO.C,S10*%
X164725000Y-76050000D03*
X176275000Y-78250000D03*
%TD*%
%TO.C,S19*%
X200725000Y-89050000D03*
X212275000Y-91250000D03*
%TD*%
%TO.C,S20*%
X200725000Y-72050000D03*
X212275000Y-74250000D03*
%TD*%
%TO.C,S14*%
X182725000Y-91050000D03*
X194275000Y-93250000D03*
%TD*%
D11*
%TO.C,D13*%
X184350000Y-119000000D03*
X187650000Y-119000000D03*
%TD*%
%TO.C,D18*%
X202350000Y-117000000D03*
X205650000Y-117000000D03*
%TD*%
%TO.C,D21*%
X220350000Y-136000000D03*
X223650000Y-136000000D03*
%TD*%
D10*
%TO.C,S23*%
X218725000Y-91050000D03*
X230275000Y-93250000D03*
%TD*%
D11*
%TO.C,D26*%
X238350000Y-119000000D03*
X241650000Y-119000000D03*
%TD*%
D10*
%TO.C,S22*%
X218725000Y-108050000D03*
X230275000Y-110250000D03*
%TD*%
D11*
%TO.C,D28*%
X238350000Y-85000000D03*
X241650000Y-85000000D03*
%TD*%
%TO.C,D25*%
X238350000Y-136000000D03*
X241650000Y-136000000D03*
%TD*%
D10*
%TO.C,S13*%
X182725000Y-108050000D03*
X194275000Y-110250000D03*
%TD*%
D11*
%TO.C,D6*%
X166350000Y-155000000D03*
X169650000Y-155000000D03*
%TD*%
D10*
%TO.C,S7*%
X164725000Y-127050000D03*
X176275000Y-129250000D03*
%TD*%
%TO.C,S25*%
X236725000Y-125050000D03*
X248275000Y-127250000D03*
%TD*%
%TO.C,S18*%
X200725000Y-106050000D03*
X212275000Y-108250000D03*
%TD*%
D12*
%TO.C,S30*%
X245327851Y-145323669D03*
X255914893Y-150438066D03*
%TD*%
D11*
%TO.C,D3*%
X148350000Y-121000000D03*
X151650000Y-121000000D03*
%TD*%
%TO.C,D27*%
X238350000Y-102000000D03*
X241650000Y-102000000D03*
%TD*%
D10*
%TO.C,S24*%
X218725000Y-74050000D03*
X230275000Y-76250000D03*
%TD*%
D13*
%TO.C,D31*%
X261507900Y-162022078D03*
X264663706Y-162986904D03*
%TD*%
D10*
%TO.C,S12*%
X182725000Y-125050000D03*
X194275000Y-127250000D03*
%TD*%
%TO.C,S5*%
X146725000Y-76050000D03*
X158275000Y-78250000D03*
%TD*%
D11*
%TO.C,D10*%
X166350000Y-87000000D03*
X169650000Y-87000000D03*
%TD*%
D14*
%TO.C,S29*%
X225807961Y-143071696D03*
X236800465Y-147243910D03*
%TD*%
D15*
%TO.C,D29*%
X225506826Y-154137520D03*
X228756692Y-154710558D03*
%TD*%
D11*
%TO.C,D17*%
X202350000Y-134000000D03*
X205650000Y-134000000D03*
%TD*%
D10*
%TO.C,S15*%
X182725000Y-74050000D03*
X194275000Y-76250000D03*
%TD*%
D11*
%TO.C,D15*%
X184350000Y-85000000D03*
X187650000Y-85000000D03*
%TD*%
%TO.C,D5*%
X148350000Y-87000000D03*
X151650000Y-87000000D03*
%TD*%
D10*
%TO.C,S4*%
X146725000Y-93050000D03*
X158275000Y-95250000D03*
%TD*%
%TO.C,S26*%
X236725000Y-108050000D03*
X248275000Y-110250000D03*
%TD*%
D11*
%TO.C,D24*%
X220350000Y-85000000D03*
X223650000Y-85000000D03*
%TD*%
D16*
%TO.C,S31*%
X263155375Y-151075437D03*
X273557477Y-156556201D03*
%TD*%
D10*
%TO.C,S17*%
X200725000Y-123050000D03*
X212275000Y-125250000D03*
%TD*%
D11*
%TO.C,D1*%
X148350000Y-155000000D03*
X151650000Y-155000000D03*
%TD*%
%TO.C,D22*%
X220350000Y-119000000D03*
X223650000Y-119000000D03*
%TD*%
%TO.C,D4*%
X148350000Y-104000000D03*
X151650000Y-104000000D03*
%TD*%
D17*
%TO.C,D30*%
X244063411Y-156321140D03*
X247250967Y-157175240D03*
%TD*%
D11*
%TO.C,D16*%
X202350000Y-151000000D03*
X205650000Y-151000000D03*
%TD*%
D10*
%TO.C,S21*%
X218725000Y-125050000D03*
X230275000Y-127250000D03*
%TD*%
D11*
%TO.C,D14*%
X184350000Y-102000000D03*
X187650000Y-102000000D03*
%TD*%
M02*
