M48
; DRILL file {KiCad 8.0.4} date 2024-10-05T17:04:00-0400
; FORMAT={-:-/ absolute / inch / decimal}
; #@! TF.CreationDate,2024-10-05T17:04:00-04:00
; #@! TF.GenerationSoftware,Kicad,Pcbnew,8.0.4
; #@! TF.FileFunction,NonPlated,1,2,NPTH
FMAT,2
INCH
; #@! TA.AperFunction,NonPlated,NPTH,ComponentDrill
T1C0.0591
; #@! TA.AperFunction,NonPlated,NPTH,ComponentDrill
T2C0.0670
; #@! TA.AperFunction,NonPlated,NPTH,ComponentDrill
T3C0.1181
; #@! TA.AperFunction,NonPlated,NPTH,ComponentDrill
T4C0.1350
%
G90
G05
T1
X10.4834Y-4.4179
X10.4888Y-4.5083
X10.7585Y-4.4015
X10.7639Y-4.4919
T2
X5.689Y-3.2283
X5.689Y-3.8976
X5.689Y-4.5669
X5.689Y-5.2362
X5.689Y-5.9055
X6.122Y-3.2283
X6.122Y-3.8976
X6.122Y-4.5669
X6.122Y-5.2362
X6.122Y-5.9055
X6.3976Y-3.2283
X6.3976Y-3.8976
X6.3976Y-4.5669
X6.3976Y-5.2362
X6.3976Y-5.9055
X6.8307Y-3.2283
X6.8307Y-3.8976
X6.8307Y-4.5669
X6.8307Y-5.2362
X6.8307Y-5.9055
X7.1063Y-3.1496
X7.1063Y-3.8189
X7.1063Y-4.4882
X7.1063Y-5.1575
X7.1063Y-5.8268
X7.5394Y-3.1496
X7.5394Y-3.8189
X7.5394Y-4.4882
X7.5394Y-5.1575
X7.5394Y-5.8268
X7.815Y-3.0709
X7.815Y-3.7402
X7.815Y-4.4094
X7.815Y-5.0787
X7.815Y-5.748
X8.248Y-3.0709
X8.248Y-3.7402
X8.248Y-4.4094
X8.248Y-5.0787
X8.248Y-5.748
X8.5236Y-3.1496
X8.5236Y-3.8189
X8.5236Y-4.4882
X8.5236Y-5.1575
X8.7631Y-5.8482
X8.9567Y-3.1496
X8.9567Y-3.8189
X8.9567Y-4.4882
X8.9567Y-5.1575
X9.1896Y-5.9234
X9.2323Y-3.1496
X9.2323Y-3.8189
X9.2323Y-4.4882
X9.2323Y-5.1575
X9.5133Y-5.925
X9.6654Y-3.1496
X9.6654Y-3.8189
X9.6654Y-4.4882
X9.6654Y-5.1575
X9.9316Y-6.0371
X10.2082Y-6.1463
X10.6223Y-6.2729
T3
X5.7087Y-3.0807
X5.7087Y-3.75
X5.7087Y-4.4193
X5.7087Y-5.0886
X5.7087Y-5.7579
X5.9055Y-2.9941
X5.9055Y-2.9941
X5.9055Y-3.6634
X5.9055Y-3.6634
X5.9055Y-4.3327
X5.9055Y-4.3327
X5.9055Y-5.002
X5.9055Y-5.002
X5.9055Y-5.6713
X5.9055Y-5.6713
X6.1024Y-3.0807
X6.1024Y-3.75
X6.1024Y-4.4193
X6.1024Y-5.0886
X6.1024Y-5.7579
X6.4173Y-3.0807
X6.4173Y-3.75
X6.4173Y-4.4193
X6.4173Y-5.0886
X6.4173Y-5.7579
X6.6142Y-2.9941
X6.6142Y-2.9941
X6.6142Y-3.6634
X6.6142Y-3.6634
X6.6142Y-4.3327
X6.6142Y-4.3327
X6.6142Y-5.002
X6.6142Y-5.002
X6.6142Y-5.6713
X6.6142Y-5.6713
X6.811Y-3.0807
X6.811Y-3.75
X6.811Y-4.4193
X6.811Y-5.0886
X6.811Y-5.7579
X7.126Y-3.002
X7.126Y-3.6713
X7.126Y-4.3406
X7.126Y-5.0098
X7.126Y-5.6791
X7.3228Y-2.9154
X7.3228Y-2.9154
X7.3228Y-3.5846
X7.3228Y-3.5846
X7.3228Y-4.2539
X7.3228Y-4.2539
X7.3228Y-4.9232
X7.3228Y-4.9232
X7.3228Y-5.5925
X7.3228Y-5.5925
X7.5197Y-3.002
X7.5197Y-3.6713
X7.5197Y-4.3406
X7.5197Y-5.0098
X7.5197Y-5.6791
X7.8346Y-2.9232
X7.8346Y-3.5925
X7.8346Y-4.2618
X7.8346Y-4.9311
X7.8346Y-5.6004
X8.0315Y-2.8366
X8.0315Y-2.8366
X8.0315Y-3.5059
X8.0315Y-3.5059
X8.0315Y-4.1752
X8.0315Y-4.1752
X8.0315Y-4.8445
X8.0315Y-4.8445
X8.0315Y-5.5138
X8.0315Y-5.5138
X8.2283Y-2.9232
X8.2283Y-3.5925
X8.2283Y-4.2618
X8.2283Y-4.9311
X8.2283Y-5.6004
X8.5433Y-3.002
X8.5433Y-3.6713
X8.5433Y-4.3406
X8.5433Y-5.0098
X8.7402Y-2.9154
X8.7402Y-2.9154
X8.7402Y-3.5846
X8.7402Y-3.5846
X8.7402Y-4.2539
X8.7402Y-4.2539
X8.7402Y-4.9232
X8.7402Y-4.9232
X8.8082Y-5.7062
X8.937Y-3.002
X8.937Y-3.6713
X8.937Y-4.3406
X8.937Y-5.0098
X9.0171Y-5.6551
X9.0171Y-5.6551
X9.1959Y-5.7746
X9.252Y-3.002
X9.252Y-3.6713
X9.252Y-4.3406
X9.252Y-5.0098
X9.4488Y-2.9154
X9.4488Y-2.9154
X9.4488Y-3.5846
X9.4488Y-3.5846
X9.4488Y-4.2539
X9.4488Y-4.2539
X9.4488Y-4.9232
X9.4488Y-4.9232
X9.5706Y-5.7875
X9.6457Y-3.002
X9.6457Y-3.6713
X9.6457Y-4.3406
X9.6457Y-5.0098
X9.7831Y-5.7548
X9.7831Y-5.7548
X9.9508Y-5.8894
X10.2702Y-6.0108
X10.4838Y-5.9855
X10.4838Y-5.9855
X10.6467Y-6.1259
T4
X5.9055Y-3.2283
X5.9055Y-3.8976
X5.9055Y-4.5669
X5.9055Y-5.2362
X5.9055Y-5.9055
X6.6142Y-3.2283
X6.6142Y-3.8976
X6.6142Y-4.5669
X6.6142Y-5.2362
X6.6142Y-5.9055
X7.3228Y-3.1496
X7.3228Y-3.8189
X7.3228Y-4.4882
X7.3228Y-5.1575
X7.3228Y-5.8268
X8.0315Y-3.0709
X8.0315Y-3.7402
X8.0315Y-4.4094
X8.0315Y-5.0787
X8.0315Y-5.748
X8.7402Y-3.1496
X8.7402Y-3.8189
X8.7402Y-4.4882
X8.7402Y-5.1575
X8.9764Y-5.8858
X9.4488Y-3.1496
X9.4488Y-3.8189
X9.4488Y-4.4882
X9.4488Y-5.1575
X9.7225Y-5.981
X10.4153Y-6.2096
M30
