M48
; DRILL file {KiCad 8.0.4} date 2024-10-05T17:04:00-0400
; FORMAT={-:-/ absolute / inch / decimal}
; #@! TF.CreationDate,2024-10-05T17:04:00-04:00
; #@! TF.GenerationSoftware,Kicad,Pcbnew,8.0.4
; #@! TF.FileFunction,Plated,1,2,PTH
FMAT,2
INCH
; #@! TA.AperFunction,Plated,PTH,ViaDrill
T1C0.0157
; #@! TA.AperFunction,Plated,PTH,ComponentDrill
T2C0.0157
; #@! TA.AperFunction,Plated,PTH,ComponentDrill
T3C0.0354
; #@! TA.AperFunction,Plated,PTH,ComponentDrill
T4C0.0390
; #@! TA.AperFunction,Plated,PTH,ComponentDrill
T5C0.0430
; #@! TA.AperFunction,Plated,PTH,ComponentDrill
T6C0.0866
%
G90
G05
T1
X5.7766Y-2.9941
X5.7766Y-3.6634
X5.7766Y-4.3327
X5.7766Y-5.002
X5.7766Y-5.6713
X6.4852Y-2.9941
X6.4852Y-3.6634
X6.4852Y-4.3327
X6.4852Y-5.002
X6.4852Y-5.6713
X7.1939Y-2.9154
X7.1939Y-3.5846
X7.1939Y-4.2539
X7.1939Y-4.9232
X7.1939Y-5.5925
X7.9026Y-2.8366
X7.9026Y-3.5059
X7.9026Y-4.1752
X7.9026Y-4.8445
X7.9026Y-5.5138
X8.6112Y-2.9154
X8.6112Y-3.5846
X8.6112Y-4.2539
X8.6112Y-4.9232
X8.8901Y-5.6327
X9.3199Y-2.9154
X9.3199Y-3.5846
X9.3199Y-4.2539
X9.3199Y-4.9232
X9.6586Y-5.7214
X10.3604Y-5.9479
T2
X6.1949Y-3.563
X6.1949Y-5.5709
X6.2139Y-3.5171
X6.2139Y-3.6089
X6.2139Y-5.5249
X6.2139Y-5.6168
X6.2598Y-3.498
X6.2598Y-3.628
X6.2598Y-5.5059
X6.2598Y-5.6358
X6.3058Y-3.5171
X6.3058Y-3.6089
X6.3058Y-5.5249
X6.3058Y-5.6168
X6.3248Y-3.563
X6.3248Y-5.5709
X9.0295Y-3.4843
X9.0486Y-3.4383
X9.0486Y-3.5302
X9.0945Y-3.4193
X9.0945Y-3.5492
X9.1404Y-3.4383
X9.1404Y-3.5302
X9.1594Y-3.4843
X9.7718Y-5.5459
X9.7783Y-5.5952
X9.8021Y-5.5065
X9.8178Y-5.6255
X9.8514Y-5.5
X9.8671Y-5.619
X9.8908Y-5.5303
X9.8973Y-5.5795
T4
X5.7555Y-3.4252
X5.7555Y-4.0945
X5.7555Y-4.7638
X5.7555Y-5.4331
X5.7555Y-6.1024
X6.0555Y-3.4252
X6.0555Y-4.0945
X6.0555Y-4.7638
X6.0555Y-5.4331
X6.0555Y-6.1024
X6.4642Y-3.4252
X6.4642Y-4.0945
X6.4642Y-4.7638
X6.4642Y-5.4331
X6.4642Y-6.1024
X6.7642Y-3.4252
X6.7642Y-4.0945
X6.7642Y-4.7638
X6.7642Y-5.4331
X6.7642Y-6.1024
X7.1728Y-3.3465
X7.1728Y-4.0157
X7.1728Y-4.685
X7.1728Y-5.3543
X7.1728Y-6.0236
X7.4728Y-3.3465
X7.4728Y-4.0157
X7.4728Y-4.685
X7.4728Y-5.3543
X7.4728Y-6.0236
X7.8815Y-3.2677
X7.8815Y-3.937
X7.8815Y-4.6063
X7.8815Y-5.2756
X7.8815Y-5.9449
X8.1815Y-3.2677
X8.1815Y-3.937
X8.1815Y-4.6063
X8.1815Y-5.2756
X8.1815Y-5.9449
X8.5902Y-3.3465
X8.5902Y-4.0157
X8.5902Y-4.685
X8.5902Y-5.3543
X8.7945Y-6.0536
X8.8902Y-3.3465
X8.8902Y-4.0157
X8.8902Y-4.685
X8.8902Y-5.3543
X9.0899Y-6.1057
X9.2988Y-3.3465
X9.2988Y-4.0157
X9.2988Y-4.685
X9.2988Y-5.3543
X9.5267Y-6.1324
X9.5988Y-3.3465
X9.5988Y-4.0157
X9.5988Y-4.685
X9.5988Y-5.3543
X9.8164Y-6.21
X10.2143Y-6.354
X10.5012Y-6.4417
T5
X9.9756Y-2.9638
X9.9756Y-3.0638
X9.9756Y-3.1638
X9.9756Y-3.2638
X9.9756Y-3.3638
X9.9756Y-3.4638
X9.9756Y-3.5638
X9.9756Y-3.6638
X9.9756Y-3.7638
X9.9756Y-3.8638
X9.9756Y-3.9638
X9.9756Y-4.0638
X10.0937Y-2.9146
X10.0937Y-3.0146
X10.0937Y-3.1146
X10.0937Y-3.2146
X10.0937Y-3.3146
X10.0937Y-3.4146
X10.0937Y-3.5146
X10.0937Y-3.6146
X10.0937Y-3.7146
X10.0937Y-3.8146
X10.0937Y-3.9146
X10.0937Y-4.0146
X10.5756Y-2.9638
X10.5756Y-3.0638
X10.5756Y-3.1638
X10.5756Y-3.2638
X10.5756Y-3.3638
X10.5756Y-3.4638
X10.5756Y-3.5638
X10.5756Y-3.6638
X10.5756Y-3.7638
X10.5756Y-3.8638
X10.5756Y-3.9638
X10.5756Y-4.0638
X10.6937Y-2.9146
X10.6937Y-3.0146
X10.6937Y-3.1146
X10.6937Y-3.2146
X10.6937Y-3.3146
X10.6937Y-3.4146
X10.6937Y-3.5146
X10.6937Y-3.6146
X10.6937Y-3.7146
X10.6937Y-3.8146
X10.6937Y-3.9146
X10.6937Y-4.0146
T6
X6.2598Y-3.563
X6.2598Y-5.5709
X9.0945Y-3.4843
X9.8346Y-5.5627
T3
G00X10.3891Y-4.4235
M15
G01X10.3655Y-4.4249
M16
G05
G00X10.3945Y-4.5139
M15
G01X10.3709Y-4.5153
M16
G05
G00X10.427Y-4.3305
M15
G01X10.4034Y-4.3319
M16
G05
G00X10.4431Y-4.6017
M15
G01X10.4195Y-4.6031
M16
G05
G00X10.5842Y-4.3212
M15
G01X10.5606Y-4.3226
M16
G05
G00X10.6003Y-4.5924
M15
G01X10.5767Y-4.5938
M16
G05
G00X10.7021Y-4.3142
M15
G01X10.6785Y-4.3156
M16
G05
G00X10.7182Y-4.5854
M15
G01X10.6946Y-4.5868
M16
G05
M30
